<ttFont>
<head>
    <!-- Most of this table will be recalculated by the compiler -->
    <tableVersion value="1.0"/>
    <fontRevision value="1.001"/>
    <checkSumAdjustment value="0x58d8436a"/>
    <magicNumber value="0x5f0f3cf5"/>
    <flags value="00000000 00000011"/>
    <unitsPerEm value="1000"/>
    <created value="Thu Aug 23 14:06:59 2018"/>
    <modified value="Sun Aug 26 15:10:06 2018"/>
    <xMin value="-122"/>
    <yMin value="-236"/>
    <xMax value="1005"/>
    <yMax value="790"/>
    <macStyle value="00000000 00000000"/>
    <lowestRecPPEM value="6"/>
    <fontDirectionHint value="2"/>
    <indexToLocFormat value="0"/>
    <glyphDataFormat value="0"/>
  </head>
    <TTGlyph name=".notdef" xMin="50" yMin="-223" xMax="450" yMax="735">
      <contour>
        <pt x="50" y="-223" on="1"/>
        <pt x="450" y="-223" on="1"/>
        <pt x="450" y="735" on="1"/>
        <pt x="50" y="735" on="1"/>
      </contour>
      <contour>
        <pt x="100" y="-173" on="1"/>
        <pt x="100" y="685" on="1"/>
        <pt x="400" y="685" on="1"/>
        <pt x="400" y="-173" on="1"/>
      </contour>
    </TTGlyph>
    <TTGlyph name="uni0021" xMin="72" yMin="-6" xMax="209" yMax="735">
      <contour>
        <pt x="196" y="735" on="1"/>
        <pt x="85" y="735" on="1"/>
        <pt x="85" y="666" on="0"/>
        <pt x="94" y="551" on="0"/>
        <pt x="105" y="437" on="0"/>
        <pt x="114" y="303" on="0"/>
        <pt x="114" y="214" on="1"/>
        <pt x="167" y="214" on="1"/>
        <pt x="167" y="303" on="0"/>
        <pt x="176" y="437" on="0"/>
        <pt x="187" y="551" on="0"/>
        <pt x="196" y="666" on="0"/>
      </contour>
      <contour>
        <pt x="209" y="57" on="1"/>
        <pt x="209" y="29" on="0"/>
        <pt x="171" y="-6" on="0"/>
        <pt x="140" y="-6" on="1"/>
        <pt x="110" y="-6" on="0"/>
        <pt x="72" y="29" on="0"/>
        <pt x="72" y="57" on="1"/>
        <pt x="72" y="86" on="0"/>
        <pt x="110" y="121" on="0"/>
        <pt x="140" y="121" on="1"/>
        <pt x="171" y="121" on="0"/>
        <pt x="209" y="86" on="0"/>
      </contour>
    </TTGlyph>
    <TTGlyph name="uni0022" xMin="75" yMin="475" xMax="304" yMax="710">
      <component glyphName="uni0027" x="0" y="0" flags="0x4"/>
      <component glyphName="uni0027" x="136" y="0" flags="0x4"/>
    </TTGlyph>
    <TTGlyph name="uni0023" xMin="30" yMin="0" xMax="584" yMax="750">
      <contour>
        <pt x="107" y="0" on="1"/>
        <pt x="241" y="750" on="1"/>
        <pt x="304" y="750" on="1"/>
        <pt x="170" y="0" on="1"/>
      </contour>
      <contour>
        <pt x="30" y="245" on="1"/>
        <pt x="30" y="315" on="1"/>
        <pt x="542" y="315" on="1"/>
        <pt x="542" y="245" on="1"/>
      </contour>
      <contour>
        <pt x="72" y="455" on="1"/>
        <pt x="72" y="525" on="1"/>
        <pt x="584" y="525" on="1"/>
        <pt x="584" y="455" on="1"/>
      </contour>
      <contour>
        <pt x="307" y="0" on="1"/>
        <pt x="439" y="750" on="1"/>
        <pt x="504" y="750" on="1"/>
        <pt x="370" y="0" on="1"/>
      </contour>
    </TTGlyph>
    <TTGlyph name="uni0024" xMin="45" yMin="-120" xMax="517" yMax="790">
      <contour>
        <pt x="254" y="790" on="1"/>
        <pt x="314" y="790" on="1"/>
        <pt x="314" y="673" on="1"/>
        <pt x="314" y="662" on="1"/>
        <pt x="314" y="50" on="1"/>
        <pt x="314" y="38" on="1"/>
        <pt x="314" y="-120" on="1"/>
        <pt x="254" y="-120" on="1"/>
        <pt x="254" y="36" on="1"/>
        <pt x="254" y="46" on="1"/>
        <pt x="254" y="660" on="1"/>
        <pt x="254" y="676" on="1"/>
      </contour>
      <contour>
        <pt x="286" y="69" on="1"/>
        <pt x="333" y="69" on="0"/>
        <pt x="400" y="93" on="0"/>
        <pt x="435" y="147" on="0"/>
        <pt x="435" y="192" on="1"/>
        <pt x="435" y="229" on="0"/>
        <pt x="407" y="277" on="0"/>
        <pt x="359" y="307" on="0"/>
        <pt x="298" y="326" on="0"/>
        <pt x="266" y="335" on="1"/>
        <pt x="230" y="345" on="0"/>
        <pt x="161" y="370" on="0"/>
        <pt x="104" y="409" on="0"/>
        <pt x="70" y="473" on="0"/>
        <pt x="70" y="522" on="1"/>
        <pt x="70" y="579" on="0"/>
        <pt x="126" y="657" on="0"/>
        <pt x="228" y="698" on="0"/>
        <pt x="296" y="698" on="1"/>
        <pt x="344" y="698" on="0"/>
        <pt x="422" y="679" on="0"/>
        <pt x="481" y="650" on="0"/>
        <pt x="497" y="635" on="1"/>
        <pt x="497" y="522" on="1"/>
        <pt x="407" y="522" on="1"/>
        <pt x="407" y="623" on="1"/>
        <pt x="417" y="622" on="0"/>
        <pt x="434" y="614" on="0"/>
        <pt x="448" y="600" on="0"/>
        <pt x="453" y="584" on="0"/>
        <pt x="451" y="576" on="1"/>
        <pt x="430" y="604" on="0"/>
        <pt x="355" y="642" on="0"/>
        <pt x="302" y="642" on="1"/>
        <pt x="225" y="642" on="0"/>
        <pt x="147" y="585" on="0"/>
        <pt x="147" y="530" on="1"/>
        <pt x="147" y="498" on="0"/>
        <pt x="174" y="456" on="0"/>
        <pt x="221" y="428" on="0"/>
        <pt x="281" y="410" on="0"/>
        <pt x="313" y="402" on="1"/>
        <pt x="350" y="392" on="0"/>
        <pt x="422" y="363" on="0"/>
        <pt x="481" y="319" on="0"/>
        <pt x="517" y="254" on="0"/>
        <pt x="517" y="208" on="1"/>
        <pt x="517" y="143" on="0"/>
        <pt x="457" y="55" on="0"/>
        <pt x="355" y="12" on="0"/>
        <pt x="290" y="12" on="1"/>
        <pt x="234" y="12" on="0"/>
        <pt x="140" y="35" on="0"/>
        <pt x="68" y="71" on="0"/>
        <pt x="45" y="91" on="1"/>
        <pt x="45" y="218" on="1"/>
        <pt x="140" y="218" on="1"/>
        <pt x="140" y="97" on="1"/>
        <pt x="129" y="98" on="0"/>
        <pt x="109" y="112" on="0"/>
        <pt x="96" y="131" on="0"/>
        <pt x="91" y="149" on="0"/>
        <pt x="94" y="154" on="1"/>
        <pt x="121" y="114" on="0"/>
        <pt x="225" y="69" on="0"/>
      </contour>
    </TTGlyph>
    <TTGlyph name="uni0025" xMin="32" yMin="-10" xMax="747" yMax="720">
      <contour>
        <pt x="193" y="720" on="1"/>
        <pt x="240" y="720" on="0"/>
        <pt x="313" y="676" on="0"/>
        <pt x="354" y="600" on="0"/>
        <pt x="354" y="551" on="1"/>
        <pt x="354" y="502" on="0"/>
        <pt x="313" y="426" on="0"/>
        <pt x="240" y="382" on="0"/>
        <pt x="193" y="382" on="1"/>
        <pt x="146" y="382" on="0"/>
        <pt x="73" y="426" on="0"/>
        <pt x="32" y="502" on="0"/>
        <pt x="32" y="551" on="1"/>
        <pt x="32" y="600" on="0"/>
        <pt x="73" y="676" on="0"/>
        <pt x="146" y="720" on="0"/>
      </contour>
      <contour>
        <pt x="193" y="429" on="1"/>
        <pt x="219" y="429" on="0"/>
        <pt x="257" y="460" on="0"/>
        <pt x="277" y="515" on="0"/>
        <pt x="277" y="551" on="1"/>
        <pt x="277" y="587" on="0"/>
        <pt x="257" y="642" on="0"/>
        <pt x="219" y="673" on="0"/>
        <pt x="193" y="673" on="1"/>
        <pt x="167" y="673" on="0"/>
        <pt x="129" y="642" on="0"/>
        <pt x="109" y="587" on="0"/>
        <pt x="109" y="551" on="1"/>
        <pt x="109" y="515" on="0"/>
        <pt x="129" y="460" on="0"/>
        <pt x="167" y="429" on="0"/>
      </contour>
      <contour>
        <pt x="586" y="328" on="1"/>
        <pt x="633" y="328" on="0"/>
        <pt x="706" y="284" on="0"/>
        <pt x="747" y="208" on="0"/>
        <pt x="747" y="159" on="1"/>
        <pt x="747" y="111" on="0"/>
        <pt x="706" y="34" on="0"/>
        <pt x="633" y="-10" on="0"/>
        <pt x="586" y="-10" on="1"/>
        <pt x="539" y="-10" on="0"/>
        <pt x="466" y="34" on="0"/>
        <pt x="425" y="110" on="0"/>
        <pt x="425" y="159" on="1"/>
        <pt x="425" y="208" on="0"/>
        <pt x="466" y="284" on="0"/>
        <pt x="539" y="328" on="0"/>
      </contour>
      <contour>
        <pt x="586" y="37" on="1"/>
        <pt x="612" y="37" on="0"/>
        <pt x="650" y="68" on="0"/>
        <pt x="670" y="123" on="0"/>
        <pt x="670" y="159" on="1"/>
        <pt x="670" y="195" on="0"/>
        <pt x="650" y="250" on="0"/>
        <pt x="612" y="281" on="0"/>
        <pt x="586" y="281" on="1"/>
        <pt x="560" y="281" on="0"/>
        <pt x="522" y="250" on="0"/>
        <pt x="502" y="195" on="0"/>
        <pt x="502" y="159" on="1"/>
        <pt x="502" y="123" on="0"/>
        <pt x="522" y="68" on="0"/>
        <pt x="560" y="37" on="0"/>
      </contour>
      <contour>
        <pt x="669" y="710" on="1"/>
        <pt x="744" y="710" on="1"/>
        <pt x="131" y="0" on="1"/>
        <pt x="56" y="0" on="1"/>
      </contour>
    </TTGlyph>
    <TTGlyph name="uni0026" xMin="55" yMin="-10" xMax="704" yMax="718">
      <contour>
        <pt x="623" y="311" on="1"/>
        <pt x="617" y="284" on="0"/>
        <pt x="588" y="203" on="0"/>
        <pt x="538" y="115" on="0"/>
        <pt x="466" y="38" on="0"/>
        <pt x="367" y="-10" on="0"/>
        <pt x="304" y="-10" on="1"/>
        <pt x="227" y="-10" on="0"/>
        <pt x="115" y="43" on="0"/>
        <pt x="55" y="137" on="0"/>
        <pt x="55" y="200" on="1"/>
        <pt x="55" y="257" on="0"/>
        <pt x="111" y="344" on="0"/>
        <pt x="209" y="405" on="0"/>
        <pt x="271" y="422" on="1"/>
        <pt x="293" y="381" on="1"/>
        <pt x="231" y="358" on="0"/>
        <pt x="153" y="274" on="0"/>
        <pt x="153" y="206" on="1"/>
        <pt x="153" y="133" on="0"/>
        <pt x="233" y="45" on="0"/>
        <pt x="313" y="45" on="1"/>
        <pt x="362" y="45" on="0"/>
        <pt x="441" y="82" on="0"/>
        <pt x="502" y="145" on="0"/>
        <pt x="544" y="222" on="0"/>
        <pt x="565" y="303" on="0"/>
        <pt x="565" y="339" on="1"/>
        <pt x="565" y="343" on="0"/>
        <pt x="540" y="347" on="0"/>
        <pt x="506" y="349" on="0"/>
        <pt x="492" y="349" on="1"/>
        <pt x="490" y="349" on="1"/>
        <pt x="490" y="394" on="1"/>
        <pt x="704" y="394" on="1"/>
        <pt x="704" y="349" on="1"/>
        <pt x="702" y="349" on="1"/>
        <pt x="668" y="349" on="0"/>
        <pt x="628" y="336" on="0"/>
      </contour>
      <contour>
        <pt x="696" y="0" on="1"/>
        <pt x="561" y="0" on="1"/>
        <pt x="486" y="72" on="0"/>
        <pt x="353" y="216" on="0"/>
        <pt x="251" y="357" on="0"/>
        <pt x="194" y="491" on="0"/>
        <pt x="194" y="552" on="1"/>
        <pt x="194" y="603" on="0"/>
        <pt x="241" y="677" on="0"/>
        <pt x="323" y="718" on="0"/>
        <pt x="376" y="718" on="1"/>
        <pt x="451" y="718" on="0"/>
        <pt x="532" y="645" on="0"/>
        <pt x="532" y="585" on="1"/>
        <pt x="532" y="537" on="0"/>
        <pt x="473" y="463" on="0"/>
        <pt x="374" y="408" on="0"/>
        <pt x="315" y="387" on="1"/>
        <pt x="293" y="430" on="1"/>
        <pt x="346" y="452" on="0"/>
        <pt x="417" y="492" on="0"/>
        <pt x="454" y="542" on="0"/>
        <pt x="454" y="577" on="1"/>
        <pt x="454" y="617" on="0"/>
        <pt x="414" y="663" on="0"/>
        <pt x="376" y="663" on="1"/>
        <pt x="336" y="663" on="0"/>
        <pt x="282" y="610" on="0"/>
        <pt x="282" y="549" on="1"/>
        <pt x="282" y="490" on="0"/>
        <pt x="343" y="358" on="0"/>
        <pt x="473" y="201" on="0"/>
        <pt x="576" y="102" on="1"/>
        <pt x="592" y="88" on="0"/>
        <pt x="618" y="68" on="0"/>
        <pt x="648" y="58" on="0"/>
        <pt x="670" y="58" on="1"/>
        <pt x="696" y="58" on="1"/>
      </contour>
    </TTGlyph>
    <TTGlyph name="uni0027" xMin="75" yMin="475" xMax="168" yMax="710">
      <contour>
        <pt x="168" y="710" on="1"/>
        <pt x="75" y="710" on="1"/>
        <pt x="75" y="682" on="0"/>
        <pt x="81" y="636" on="0"/>
        <pt x="90" y="587" on="0"/>
        <pt x="96" y="522" on="0"/>
        <pt x="96" y="475" on="1"/>
        <pt x="147" y="475" on="1"/>
        <pt x="147" y="522" on="0"/>
        <pt x="153" y="587" on="0"/>
        <pt x="162" y="637" on="0"/>
        <pt x="168" y="682" on="0"/>
      </contour>
    </TTGlyph>
    <TTGlyph name="uni0028" xMin="50" yMin="-130" xMax="322" yMax="750">
      <contour>
        <pt x="140" y="310" on="1"/>
        <pt x="140" y="410" on="0"/>
        <pt x="196" y="579" on="0"/>
        <pt x="280" y="708" on="0"/>
        <pt x="322" y="747" on="1"/>
        <pt x="322" y="750" on="1"/>
        <pt x="254" y="750" on="1"/>
        <pt x="200" y="710" on="0"/>
        <pt x="107" y="577" on="0"/>
        <pt x="50" y="406" on="0"/>
        <pt x="50" y="310" on="1"/>
        <pt x="50" y="214" on="0"/>
        <pt x="107" y="43" on="0"/>
        <pt x="200" y="-90" on="0"/>
        <pt x="254" y="-130" on="1"/>
        <pt x="322" y="-130" on="1"/>
        <pt x="322" y="-127" on="1"/>
        <pt x="280" y="-87" on="0"/>
        <pt x="196" y="42" on="0"/>
        <pt x="140" y="211" on="0"/>
      </contour>
    </TTGlyph>
    <TTGlyph name="uni0029" xMin="5" yMin="-130" xMax="277" yMax="750">
      <component glyphName="uni0028" x="327" y="0" scalex="-1.0" scaley="1.0" flags="0x4"/>
    </TTGlyph>
    <TTGlyph name="uni002A" xMin="30" yMin="350" xMax="370" yMax="710">
      <contour>
        <pt x="66" y="407" on="1"/>
        <pt x="91" y="422" on="0"/>
        <pt x="125" y="452" on="0"/>
        <pt x="170" y="489" on="0"/>
        <pt x="210" y="514" on="1"/>
        <pt x="190" y="545" on="1"/>
        <pt x="150" y="521" on="0"/>
        <pt x="96" y="499" on="0"/>
        <pt x="54" y="483" on="0"/>
        <pt x="30" y="467" on="1"/>
      </contour>
      <contour>
        <pt x="190" y="514" on="1"/>
        <pt x="210" y="545" on="1"/>
        <pt x="170" y="570" on="0"/>
        <pt x="125" y="608" on="0"/>
        <pt x="91" y="638" on="0"/>
        <pt x="66" y="652" on="1"/>
        <pt x="30" y="592" on="1"/>
        <pt x="55" y="577" on="0"/>
        <pt x="97" y="561" on="0"/>
        <pt x="150" y="539" on="0"/>
      </contour>
      <contour>
        <pt x="166" y="350" on="1"/>
        <pt x="235" y="350" on="1"/>
        <pt x="235" y="379" on="0"/>
        <pt x="228" y="425" on="0"/>
        <pt x="220" y="484" on="0"/>
        <pt x="220" y="530" on="1"/>
        <pt x="181" y="530" on="1"/>
        <pt x="181" y="484" on="0"/>
        <pt x="174" y="425" on="0"/>
        <pt x="166" y="379" on="0"/>
      </contour>
      <contour>
        <pt x="181" y="530" on="1"/>
        <pt x="220" y="530" on="1"/>
        <pt x="220" y="578" on="0"/>
        <pt x="228" y="636" on="0"/>
        <pt x="235" y="682" on="0"/>
        <pt x="235" y="710" on="1"/>
        <pt x="166" y="710" on="1"/>
        <pt x="166" y="682" on="0"/>
        <pt x="174" y="636" on="0"/>
        <pt x="181" y="578" on="0"/>
      </contour>
      <contour>
        <pt x="335" y="407" on="1"/>
        <pt x="370" y="467" on="1"/>
        <pt x="347" y="483" on="0"/>
        <pt x="305" y="499" on="0"/>
        <pt x="252" y="521" on="0"/>
        <pt x="212" y="545" on="1"/>
        <pt x="192" y="514" on="1"/>
        <pt x="233" y="489" on="0"/>
        <pt x="277" y="452" on="0"/>
        <pt x="311" y="422" on="0"/>
      </contour>
      <contour>
        <pt x="212" y="514" on="1"/>
        <pt x="252" y="539" on="0"/>
        <pt x="304" y="561" on="0"/>
        <pt x="346" y="577" on="0"/>
        <pt x="370" y="592" on="1"/>
        <pt x="335" y="652" on="1"/>
        <pt x="311" y="638" on="0"/>
        <pt x="277" y="608" on="0"/>
        <pt x="233" y="570" on="0"/>
        <pt x="192" y="545" on="1"/>
      </contour>
    </TTGlyph>
    <TTGlyph name="uni002B" xMin="73" yMin="129" xMax="487" yMax="553">
      <contour>
        <pt x="242" y="553" on="1"/>
        <pt x="316" y="553" on="1"/>
        <pt x="316" y="129" on="1"/>
        <pt x="242" y="129" on="1"/>
      </contour>
      <contour>
        <pt x="487" y="374" on="1"/>
        <pt x="487" y="308" on="1"/>
        <pt x="73" y="308" on="1"/>
        <pt x="73" y="374" on="1"/>
      </contour>
    </TTGlyph>
    <TTGlyph name="uni002C" xMin="45" yMin="-164" xMax="217" yMax="119">
      <contour>
        <pt x="112" y="-164" on="1"/>
        <pt x="45" y="-133" on="1"/>
        <pt x="92" y="-99" on="0"/>
        <pt x="164" y="-25" on="0"/>
        <pt x="165" y="8" on="1"/>
        <pt x="168" y="13" on="0"/>
        <pt x="175" y="16" on="0"/>
        <pt x="184" y="13" on="0"/>
        <pt x="190" y="8" on="1"/>
        <pt x="183" y="-1" on="0"/>
        <pt x="163" y="-7" on="0"/>
        <pt x="149" y="-7" on="1"/>
        <pt x="116" y="-7" on="0"/>
        <pt x="73" y="28" on="0"/>
        <pt x="73" y="56" on="1"/>
        <pt x="73" y="84" on="0"/>
        <pt x="111" y="119" on="0"/>
        <pt x="141" y="119" on="1"/>
        <pt x="174" y="119" on="0"/>
        <pt x="217" y="78" on="0"/>
        <pt x="217" y="36" on="1"/>
        <pt x="217" y="-20" on="0"/>
        <pt x="165" y="-120" on="0"/>
      </contour>
    </TTGlyph>
    <TTGlyph name="uni002D" xMin="78" yMin="258" xMax="363" yMax="333">
      <contour>
        <pt x="78" y="333" on="1"/>
        <pt x="363" y="333" on="1"/>
        <pt x="363" y="258" on="1"/>
        <pt x="78" y="258" on="1"/>
      </contour>
    </TTGlyph>
    <TTGlyph name="uni002E" xMin="60" yMin="-6" xMax="197" yMax="121">
      <contour>
        <pt x="197" y="57" on="1"/>
        <pt x="197" y="29" on="0"/>
        <pt x="159" y="-6" on="0"/>
        <pt x="128" y="-6" on="1"/>
        <pt x="98" y="-6" on="0"/>
        <pt x="60" y="29" on="0"/>
        <pt x="60" y="57" on="1"/>
        <pt x="60" y="86" on="0"/>
        <pt x="98" y="121" on="0"/>
        <pt x="128" y="121" on="1"/>
        <pt x="159" y="121" on="0"/>
        <pt x="197" y="86" on="0"/>
      </contour>
    </TTGlyph>
    <TTGlyph name="uni002F" xMin="-19" yMin="-128" xMax="439" yMax="750">
      <contour>
        <pt x="359" y="750" on="1"/>
        <pt x="439" y="750" on="1"/>
        <pt x="61" y="-128" on="1"/>
        <pt x="-19" y="-128" on="1"/>
      </contour>
    </TTGlyph>
    <TTGlyph name="uni0030" xMin="37" yMin="-11" xMax="523" yMax="619">
      <contour>
        <pt x="280" y="-11" on="1"/>
        <pt x="208" y="-11" on="0"/>
        <pt x="99" y="69" on="0"/>
        <pt x="37" y="211" on="0"/>
        <pt x="37" y="304" on="1"/>
        <pt x="37" y="398" on="0"/>
        <pt x="99" y="539" on="0"/>
        <pt x="209" y="619" on="0"/>
        <pt x="280" y="619" on="1"/>
        <pt x="352" y="619" on="0"/>
        <pt x="461" y="539" on="0"/>
        <pt x="523" y="398" on="0"/>
        <pt x="523" y="304" on="1"/>
        <pt x="523" y="211" on="0"/>
        <pt x="461" y="69" on="0"/>
        <pt x="352" y="-11" on="0"/>
      </contour>
      <contour>
        <pt x="280" y="48" on="1"/>
        <pt x="315" y="48" on="0"/>
        <pt x="369" y="84" on="0"/>
        <pt x="407" y="151" on="0"/>
        <pt x="427" y="245" on="0"/>
        <pt x="427" y="304" on="1"/>
        <pt x="427" y="363" on="0"/>
        <pt x="407" y="457" on="0"/>
        <pt x="369" y="525" on="0"/>
        <pt x="315" y="561" on="0"/>
        <pt x="280" y="561" on="1"/>
        <pt x="245" y="561" on="0"/>
        <pt x="191" y="525" on="0"/>
        <pt x="153" y="457" on="0"/>
        <pt x="133" y="363" on="0"/>
        <pt x="133" y="304" on="1"/>
        <pt x="133" y="246" on="0"/>
        <pt x="153" y="151" on="0"/>
        <pt x="191" y="84" on="0"/>
        <pt x="245" y="48" on="0"/>
      </contour>
    </TTGlyph>
    <TTGlyph name="uni0031" xMin="83" yMin="0" xMax="507" yMax="609">
      <contour>
        <pt x="350" y="83" on="1"/>
        <pt x="350" y="61" on="0"/>
        <pt x="412" y="47" on="0"/>
        <pt x="465" y="47" on="1"/>
        <pt x="507" y="47" on="1"/>
        <pt x="507" y="0" on="1"/>
        <pt x="100" y="0" on="1"/>
        <pt x="100" y="47" on="1"/>
        <pt x="152" y="47" on="1"/>
        <pt x="201" y="47" on="0"/>
        <pt x="257" y="61" on="0"/>
        <pt x="257" y="83" on="1"/>
        <pt x="257" y="537" on="1"/>
        <pt x="274" y="548" on="1"/>
        <pt x="265" y="525" on="0"/>
        <pt x="208" y="491" on="0"/>
        <pt x="128" y="472" on="0"/>
        <pt x="83" y="473" on="1"/>
        <pt x="83" y="533" on="1"/>
        <pt x="131" y="534" on="0"/>
        <pt x="210" y="551" on="0"/>
        <pt x="269" y="584" on="0"/>
        <pt x="287" y="609" on="1"/>
        <pt x="350" y="609" on="1"/>
      </contour>
    </TTGlyph>
    <TTGlyph name="uni0032" xMin="45" yMin="0" xMax="508" yMax="618">
      <contour>
        <pt x="323" y="72" on="1"/>
        <pt x="73" y="72" on="1"/>
        <pt x="72" y="69" on="0"/>
        <pt x="73" y="57" on="0"/>
        <pt x="76" y="47" on="0"/>
        <pt x="78" y="45" on="1"/>
        <pt x="134" y="76" on="0"/>
        <pt x="249" y="147" on="0"/>
        <pt x="353" y="225" on="0"/>
        <pt x="435" y="309" on="0"/>
        <pt x="483" y="397" on="0"/>
        <pt x="483" y="442" on="1"/>
        <pt x="483" y="528" on="0"/>
        <pt x="371" y="618" on="0"/>
        <pt x="271" y="618" on="1"/>
        <pt x="222" y="618" on="0"/>
        <pt x="137" y="588" on="0"/>
        <pt x="76" y="543" on="0"/>
        <pt x="61" y="520" on="1"/>
        <pt x="61" y="429" on="1"/>
        <pt x="149" y="429" on="1"/>
        <pt x="149" y="535" on="1"/>
        <pt x="137" y="534" on="0"/>
        <pt x="119" y="518" on="0"/>
        <pt x="109" y="490" on="0"/>
        <pt x="107" y="470" on="1"/>
        <pt x="131" y="508" on="0"/>
        <pt x="215" y="559" on="0"/>
        <pt x="271" y="559" on="1"/>
        <pt x="327" y="559" on="0"/>
        <pt x="389" y="507" on="0"/>
        <pt x="389" y="446" on="1"/>
        <pt x="389" y="395" on="0"/>
        <pt x="331" y="301" on="0"/>
        <pt x="233" y="213" on="0"/>
        <pt x="110" y="131" on="0"/>
        <pt x="45" y="91" on="1"/>
        <pt x="45" y="0" on="1"/>
        <pt x="508" y="0" on="1"/>
        <pt x="508" y="190" on="1"/>
        <pt x="450" y="190" on="1"/>
        <pt x="441" y="113" on="1"/>
        <pt x="438" y="88" on="0"/>
        <pt x="385" y="72" on="0"/>
      </contour>
    </TTGlyph>
    <TTGlyph name="uni0033" xMin="23" yMin="-90" xMax="519" yMax="618">
      <contour>
        <pt x="273" y="-30" on="1"/>
        <pt x="218" y="-30" on="0"/>
        <pt x="139" y="12" on="0"/>
        <pt x="87" y="77" on="0"/>
        <pt x="72" y="111" on="1"/>
        <pt x="23" y="70" on="1"/>
        <pt x="43" y="24" on="0"/>
        <pt x="111" y="-48" on="0"/>
        <pt x="209" y="-90" on="0"/>
        <pt x="273" y="-90" on="1"/>
        <pt x="345" y="-90" on="0"/>
        <pt x="456" y="-39" on="0"/>
        <pt x="519" y="52" on="0"/>
        <pt x="519" y="112" on="1"/>
        <pt x="519" y="162" on="0"/>
        <pt x="472" y="243" on="0"/>
        <pt x="361" y="291" on="0"/>
        <pt x="266" y="291" on="1"/>
        <pt x="248" y="281" on="1"/>
        <pt x="317" y="281" on="0"/>
        <pt x="428" y="325" on="0"/>
        <pt x="492" y="403" on="0"/>
        <pt x="492" y="454" on="1"/>
        <pt x="492" y="504" on="0"/>
        <pt x="436" y="577" on="0"/>
        <pt x="338" y="618" on="0"/>
        <pt x="275" y="618" on="1"/>
        <pt x="224" y="618" on="0"/>
        <pt x="142" y="589" on="0"/>
        <pt x="83" y="545" on="0"/>
        <pt x="68" y="523" on="1"/>
        <pt x="68" y="432" on="1"/>
        <pt x="156" y="432" on="1"/>
        <pt x="156" y="538" on="1"/>
        <pt x="144" y="536" on="0"/>
        <pt x="126" y="520" on="0"/>
        <pt x="116" y="493" on="0"/>
        <pt x="114" y="474" on="1"/>
        <pt x="137" y="510" on="0"/>
        <pt x="215" y="559" on="0"/>
        <pt x="273" y="559" on="1"/>
        <pt x="327" y="559" on="0"/>
        <pt x="401" y="504" on="0"/>
        <pt x="401" y="442" on="1"/>
        <pt x="401" y="377" on="0"/>
        <pt x="315" y="312" on="0"/>
        <pt x="239" y="312" on="1"/>
        <pt x="179" y="312" on="1"/>
        <pt x="179" y="255" on="1"/>
        <pt x="251" y="255" on="1"/>
        <pt x="314" y="255" on="0"/>
        <pt x="390" y="220" on="0"/>
        <pt x="425" y="156" on="0"/>
        <pt x="425" y="112" on="1"/>
        <pt x="425" y="44" on="0"/>
        <pt x="341" y="-30" on="0"/>
      </contour>
    </TTGlyph>
    <TTGlyph name="uni0034" xMin="24" yMin="-77" xMax="552" yMax="609">
      <contour>
        <pt x="24" y="112" on="1"/>
        <pt x="24" y="185" on="1"/>
        <pt x="310" y="609" on="1"/>
        <pt x="377" y="609" on="1"/>
        <pt x="349" y="566" on="1"/>
        <pt x="62" y="139" on="1"/>
        <pt x="53" y="179" on="1"/>
        <pt x="552" y="179" on="1"/>
        <pt x="552" y="112" on="1"/>
      </contour>
      <contour>
        <pt x="431" y="-77" on="1"/>
        <pt x="338" y="-77" on="1"/>
        <pt x="338" y="578" on="1"/>
        <pt x="348" y="609" on="1"/>
        <pt x="431" y="609" on="1"/>
      </contour>
    </TTGlyph>
    <TTGlyph name="uni0035" xMin="27" yMin="-90" xMax="517" yMax="609">
      <contour>
        <pt x="267" y="-90" on="1"/>
        <pt x="342" y="-90" on="0"/>
        <pt x="454" y="-30" on="0"/>
        <pt x="517" y="77" on="0"/>
        <pt x="517" y="147" on="1"/>
        <pt x="517" y="206" on="0"/>
        <pt x="464" y="305" on="0"/>
        <pt x="366" y="366" on="0"/>
        <pt x="299" y="366" on="1"/>
        <pt x="263" y="366" on="0"/>
        <pt x="197" y="346" on="0"/>
        <pt x="143" y="307" on="0"/>
        <pt x="125" y="280" on="1"/>
        <pt x="125" y="264" on="0"/>
        <pt x="147" y="269" on="0"/>
        <pt x="149" y="276" on="1"/>
        <pt x="149" y="589" on="1"/>
        <pt x="123" y="532" on="1"/>
        <pt x="450" y="532" on="1"/>
        <pt x="475" y="609" on="1"/>
        <pt x="85" y="609" on="1"/>
        <pt x="85" y="240" on="1"/>
        <pt x="140" y="240" on="1"/>
        <pt x="167" y="272" on="0"/>
        <pt x="240" y="306" on="0"/>
        <pt x="284" y="306" on="1"/>
        <pt x="323" y="306" on="0"/>
        <pt x="386" y="269" on="0"/>
        <pt x="423" y="198" on="0"/>
        <pt x="423" y="147" on="1"/>
        <pt x="423" y="93" on="0"/>
        <pt x="384" y="13" on="0"/>
        <pt x="314" y="-30" on="0"/>
        <pt x="267" y="-30" on="1"/>
        <pt x="212" y="-30" on="0"/>
        <pt x="139" y="8" on="0"/>
        <pt x="93" y="65" on="0"/>
        <pt x="78" y="91" on="1"/>
        <pt x="27" y="51" on="1"/>
        <pt x="46" y="14" on="0"/>
        <pt x="110" y="-51" on="0"/>
        <pt x="204" y="-90" on="0"/>
      </contour>
    </TTGlyph>
    <TTGlyph name="uni0036" xMin="37" yMin="-10" xMax="523" yMax="740">
      <contour>
        <pt x="451" y="680" on="1"/>
        <pt x="441" y="740" on="1"/>
        <pt x="350" y="726" on="0"/>
        <pt x="202" y="645" on="0"/>
        <pt x="95" y="525" on="0"/>
        <pt x="37" y="377" on="0"/>
        <pt x="37" y="295" on="1"/>
        <pt x="37" y="194" on="0"/>
        <pt x="104" y="58" on="0"/>
        <pt x="219" y="-10" on="0"/>
        <pt x="291" y="-10" on="1"/>
        <pt x="358" y="-10" on="0"/>
        <pt x="463" y="52" on="0"/>
        <pt x="523" y="160" on="0"/>
        <pt x="523" y="229" on="1"/>
        <pt x="523" y="299" on="0"/>
        <pt x="469" y="399" on="0"/>
        <pt x="376" y="453" on="0"/>
        <pt x="318" y="453" on="1"/>
        <pt x="265" y="453" on="0"/>
        <pt x="180" y="406" on="0"/>
        <pt x="120" y="334" on="0"/>
        <pt x="106" y="295" on="1"/>
        <pt x="117" y="243" on="1"/>
        <pt x="137" y="286" on="0"/>
        <pt x="191" y="353" on="0"/>
        <pt x="262" y="393" on="0"/>
        <pt x="306" y="393" on="1"/>
        <pt x="346" y="393" on="0"/>
        <pt x="400" y="352" on="0"/>
        <pt x="427" y="279" on="0"/>
        <pt x="427" y="229" on="1"/>
        <pt x="427" y="176" on="0"/>
        <pt x="394" y="95" on="0"/>
        <pt x="333" y="50" on="0"/>
        <pt x="291" y="50" on="1"/>
        <pt x="244" y="50" on="0"/>
        <pt x="172" y="100" on="0"/>
        <pt x="131" y="208" on="0"/>
        <pt x="131" y="295" on="1"/>
        <pt x="131" y="370" on="0"/>
        <pt x="177" y="500" on="0"/>
        <pt x="262" y="601" on="0"/>
        <pt x="379" y="668" on="0"/>
      </contour>
    </TTGlyph>
    <TTGlyph name="uni0037" xMin="56" yMin="-77" xMax="531" yMax="609">
      <contour>
        <pt x="243" y="532" on="1"/>
        <pt x="487" y="532" on="1"/>
        <pt x="476" y="546" on="1"/>
        <pt x="460" y="527" on="0"/>
        <pt x="397" y="445" on="0"/>
        <pt x="322" y="328" on="0"/>
        <pt x="250" y="181" on="0"/>
        <pt x="196" y="14" on="0"/>
        <pt x="186" y="-77" on="1"/>
        <pt x="283" y="-77" on="1"/>
        <pt x="294" y="38" on="0"/>
        <pt x="341" y="211" on="0"/>
        <pt x="407" y="348" on="0"/>
        <pt x="488" y="470" on="0"/>
        <pt x="531" y="533" on="1"/>
        <pt x="531" y="609" on="1"/>
        <pt x="56" y="609" on="1"/>
        <pt x="56" y="399" on="1"/>
        <pt x="109" y="399" on="1"/>
        <pt x="118" y="489" on="1"/>
        <pt x="121" y="516" on="0"/>
        <pt x="179" y="532" on="0"/>
      </contour>
    </TTGlyph>
    <TTGlyph name="uni0038" xMin="37" yMin="-10" xMax="523" yMax="720">
      <contour>
        <pt x="280" y="50" on="1"/>
        <pt x="324" y="50" on="0"/>
        <pt x="389" y="87" on="0"/>
        <pt x="425" y="153" on="0"/>
        <pt x="425" y="197" on="1"/>
        <pt x="425" y="245" on="0"/>
        <pt x="389" y="312" on="0"/>
        <pt x="324" y="347" on="0"/>
        <pt x="280" y="347" on="1"/>
        <pt x="236" y="347" on="0"/>
        <pt x="171" y="312" on="0"/>
        <pt x="135" y="245" on="0"/>
        <pt x="135" y="197" on="1"/>
        <pt x="135" y="153" on="0"/>
        <pt x="171" y="87" on="0"/>
        <pt x="236" y="50" on="0"/>
      </contour>
      <contour>
        <pt x="280" y="-10" on="1"/>
        <pt x="210" y="-10" on="0"/>
        <pt x="100" y="42" on="0"/>
        <pt x="37" y="133" on="0"/>
        <pt x="37" y="192" on="1"/>
        <pt x="37" y="253" on="0"/>
        <pt x="102" y="340" on="0"/>
        <pt x="212" y="388" on="0"/>
        <pt x="280" y="388" on="1"/>
        <pt x="348" y="388" on="0"/>
        <pt x="458" y="340" on="0"/>
        <pt x="523" y="253" on="0"/>
        <pt x="523" y="192" on="1"/>
        <pt x="523" y="133" on="0"/>
        <pt x="460" y="42" on="0"/>
        <pt x="351" y="-10" on="0"/>
      </contour>
      <contour>
        <pt x="280" y="405" on="1"/>
        <pt x="315" y="405" on="0"/>
        <pt x="367" y="436" on="0"/>
        <pt x="395" y="494" on="0"/>
        <pt x="395" y="533" on="1"/>
        <pt x="395" y="572" on="0"/>
        <pt x="367" y="629" on="0"/>
        <pt x="315" y="660" on="0"/>
        <pt x="280" y="660" on="1"/>
        <pt x="245" y="660" on="0"/>
        <pt x="193" y="629" on="0"/>
        <pt x="165" y="572" on="0"/>
        <pt x="165" y="533" on="1"/>
        <pt x="165" y="494" on="0"/>
        <pt x="193" y="436" on="0"/>
        <pt x="245" y="405" on="0"/>
      </contour>
      <contour>
        <pt x="280" y="369" on="1"/>
        <pt x="221" y="369" on="0"/>
        <pt x="128" y="411" on="0"/>
        <pt x="75" y="490" on="0"/>
        <pt x="75" y="543" on="1"/>
        <pt x="75" y="595" on="0"/>
        <pt x="128" y="675" on="0"/>
        <pt x="221" y="720" on="0"/>
        <pt x="280" y="720" on="1"/>
        <pt x="339" y="720" on="0"/>
        <pt x="432" y="675" on="0"/>
        <pt x="485" y="595" on="0"/>
        <pt x="485" y="543" on="1"/>
        <pt x="485" y="490" on="0"/>
        <pt x="432" y="411" on="0"/>
        <pt x="340" y="369" on="0"/>
      </contour>
    </TTGlyph>
    <TTGlyph name="uni0039" xMin="37" yMin="-93" xMax="523" yMax="619">
      <contour>
        <pt x="91" y="-33" on="1"/>
        <pt x="101" y="-93" on="1"/>
        <pt x="200" y="-86" on="0"/>
        <pt x="356" y="-24" on="0"/>
        <pt x="466" y="81" on="0"/>
        <pt x="523" y="224" on="0"/>
        <pt x="523" y="311" on="1"/>
        <pt x="523" y="416" on="0"/>
        <pt x="457" y="553" on="0"/>
        <pt x="343" y="619" on="0"/>
        <pt x="271" y="619" on="1"/>
        <pt x="203" y="619" on="0"/>
        <pt x="97" y="562" on="0"/>
        <pt x="37" y="461" on="0"/>
        <pt x="37" y="394" on="1"/>
        <pt x="37" y="328" on="0"/>
        <pt x="92" y="230" on="0"/>
        <pt x="188" y="177" on="0"/>
        <pt x="247" y="177" on="1"/>
        <pt x="300" y="177" on="0"/>
        <pt x="384" y="222" on="0"/>
        <pt x="441" y="296" on="0"/>
        <pt x="454" y="338" on="1"/>
        <pt x="443" y="390" on="1"/>
        <pt x="425" y="344" on="0"/>
        <pt x="373" y="275" on="0"/>
        <pt x="303" y="237" on="0"/>
        <pt x="259" y="237" on="1"/>
        <pt x="217" y="237" on="0"/>
        <pt x="161" y="277" on="0"/>
        <pt x="133" y="348" on="0"/>
        <pt x="133" y="394" on="1"/>
        <pt x="133" y="445" on="0"/>
        <pt x="166" y="519" on="0"/>
        <pt x="228" y="559" on="0"/>
        <pt x="271" y="559" on="1"/>
        <pt x="306" y="559" on="0"/>
        <pt x="364" y="532" on="0"/>
        <pt x="406" y="474" on="0"/>
        <pt x="429" y="379" on="0"/>
        <pt x="429" y="311" on="1"/>
        <pt x="429" y="230" on="0"/>
        <pt x="384" y="107" on="0"/>
        <pt x="297" y="20" on="0"/>
        <pt x="171" y="-28" on="0"/>
      </contour>
    </TTGlyph>
    <TTGlyph name="uni003A" xMin="60" yMin="-6" xMax="197" yMax="509">
      <component glyphName="uni002E" x="0" y="0" flags="0x204"/>
      <component glyphName="uni002E" x="0" y="388" flags="0x4"/>
    </TTGlyph>
    <TTGlyph name="uni003B" xMin="45" yMin="-164" xMax="217" yMax="509">
      <component glyphName="uni002E" x="6" y="388" flags="0x4"/>
      <component glyphName="uni002C" x="0" y="0" flags="0x204"/>
    </TTGlyph>
    <TTGlyph name="uni003D" xMin="73" yMin="202" xMax="487" yMax="450">
      <component glyphName="uni2212" x="0" y="76" flags="0x204"/>
      <component glyphName="uni2212" x="0" y="-106" flags="0x4"/>
    </TTGlyph>
    <TTGlyph name="uni003F" xMin="60" yMin="-7" xMax="493" yMax="742">
      <contour>
        <pt x="214" y="362" on="1"/>
        <pt x="214" y="215" on="1"/>
        <pt x="288" y="215" on="1"/>
        <pt x="288" y="328" on="1"/>
        <pt x="323" y="342" on="0"/>
        <pt x="395" y="382" on="0"/>
        <pt x="456" y="437" on="0"/>
        <pt x="493" y="509" on="0"/>
        <pt x="493" y="555" on="1"/>
        <pt x="493" y="611" on="0"/>
        <pt x="438" y="695" on="0"/>
        <pt x="339" y="742" on="0"/>
        <pt x="271" y="742" on="1"/>
        <pt x="220" y="742" on="0"/>
        <pt x="136" y="713" on="0"/>
        <pt x="75" y="670" on="0"/>
        <pt x="60" y="649" on="1"/>
        <pt x="60" y="556" on="1"/>
        <pt x="148" y="556" on="1"/>
        <pt x="148" y="664" on="1"/>
        <pt x="129" y="660" on="0"/>
        <pt x="111" y="623" on="0"/>
        <pt x="110" y="594" on="1"/>
        <pt x="132" y="630" on="0"/>
        <pt x="212" y="682" on="0"/>
        <pt x="269" y="682" on="1"/>
        <pt x="329" y="682" on="0"/>
        <pt x="401" y="615" on="0"/>
        <pt x="401" y="555" on="1"/>
        <pt x="401" y="514" on="0"/>
        <pt x="372" y="456" on="0"/>
        <pt x="320" y="413" on="0"/>
        <pt x="252" y="379" on="0"/>
      </contour>
      <contour>
        <pt x="320" y="56" on="1"/>
        <pt x="320" y="28" on="0"/>
        <pt x="282" y="-7" on="0"/>
        <pt x="251" y="-7" on="1"/>
        <pt x="221" y="-7" on="0"/>
        <pt x="183" y="28" on="0"/>
        <pt x="183" y="56" on="1"/>
        <pt x="183" y="85" on="0"/>
        <pt x="221" y="120" on="0"/>
        <pt x="251" y="120" on="1"/>
        <pt x="282" y="120" on="0"/>
        <pt x="320" y="85" on="0"/>
      </contour>
    </TTGlyph>
    <TTGlyph name="uni0040" xMin="50" yMin="-153" xMax="865" yMax="673">
      <contour>
        <pt x="466" y="-98" on="1"/>
        <pt x="518" y="-98" on="0"/>
        <pt x="608" y="-83" on="0"/>
        <pt x="684" y="-60" on="0"/>
        <pt x="712" y="-48" on="1"/>
        <pt x="731" y="-100" on="1"/>
        <pt x="688" y="-119" on="0"/>
        <pt x="546" y="-153" on="0"/>
        <pt x="466" y="-153" on="1"/>
        <pt x="376" y="-153" on="0"/>
        <pt x="225" y="-100" on="0"/>
        <pt x="112" y="-1" on="0"/>
        <pt x="50" y="141" on="0"/>
        <pt x="50" y="231" on="1"/>
        <pt x="50" y="327" on="0"/>
        <pt x="118" y="489" on="0"/>
        <pt x="240" y="607" on="0"/>
        <pt x="403" y="673" on="0"/>
        <pt x="499" y="673" on="1"/>
        <pt x="611" y="673" on="0"/>
        <pt x="775" y="587" on="0"/>
        <pt x="865" y="437" on="0"/>
        <pt x="865" y="342" on="1"/>
        <pt x="865" y="273" on="0"/>
        <pt x="827" y="167" on="0"/>
        <pt x="765" y="93" on="0"/>
        <pt x="690" y="55" on="0"/>
        <pt x="652" y="55" on="1"/>
        <pt x="600" y="55" on="0"/>
        <pt x="543" y="108" on="0"/>
        <pt x="539" y="143" on="1"/>
        <pt x="538" y="144" on="0"/>
        <pt x="533" y="147" on="0"/>
        <pt x="531" y="151" on="1"/>
        <pt x="570" y="381" on="1"/>
        <pt x="583" y="386" on="1"/>
        <pt x="618" y="468" on="1"/>
        <pt x="668" y="468" on="1"/>
        <pt x="618" y="179" on="1"/>
        <pt x="611" y="141" on="0"/>
        <pt x="638" y="107" on="0"/>
        <pt x="667" y="107" on="1"/>
        <pt x="696" y="107" on="0"/>
        <pt x="760" y="160" on="0"/>
        <pt x="805" y="265" on="0"/>
        <pt x="805" y="342" on="1"/>
        <pt x="805" y="420" on="0"/>
        <pt x="733" y="545" on="0"/>
        <pt x="597" y="618" on="0"/>
        <pt x="499" y="618" on="1"/>
        <pt x="415" y="618" on="0"/>
        <pt x="273" y="560" on="0"/>
        <pt x="168" y="454" on="0"/>
        <pt x="110" y="314" on="0"/>
        <pt x="110" y="231" on="1"/>
        <pt x="110" y="130" on="0"/>
        <pt x="201" y="-18" on="0"/>
        <pt x="362" y="-98" on="0"/>
      </contour>
      <contour>
        <pt x="414" y="49" on="1"/>
        <pt x="370" y="49" on="0"/>
        <pt x="302" y="89" on="0"/>
        <pt x="264" y="168" on="0"/>
        <pt x="264" y="224" on="1"/>
        <pt x="264" y="268" on="0"/>
        <pt x="292" y="356" on="0"/>
        <pt x="345" y="430" on="0"/>
        <pt x="424" y="474" on="0"/>
        <pt x="475" y="474" on="1"/>
        <pt x="510" y="474" on="0"/>
        <pt x="565" y="446" on="0"/>
        <pt x="605" y="383" on="0"/>
        <pt x="617" y="328" on="1"/>
        <pt x="581" y="308" on="1"/>
        <pt x="569" y="371" on="0"/>
        <pt x="516" y="424" on="0"/>
        <pt x="479" y="424" on="1"/>
        <pt x="450" y="424" on="0"/>
        <pt x="402" y="387" on="0"/>
        <pt x="368" y="326" on="0"/>
        <pt x="349" y="251" on="0"/>
        <pt x="349" y="213" on="1"/>
        <pt x="349" y="158" on="0"/>
        <pt x="385" y="98" on="0"/>
        <pt x="421" y="98" on="1"/>
        <pt x="450" y="98" on="0"/>
        <pt x="502" y="132" on="0"/>
        <pt x="553" y="193" on="0"/>
        <pt x="581" y="235" on="1"/>
        <pt x="604" y="208" on="1"/>
        <pt x="568" y="159" on="0"/>
        <pt x="512" y="88" on="0"/>
        <pt x="454" y="49" on="0"/>
      </contour>
    </TTGlyph>
    <TTGlyph name="uni0041" xMin="8" yMin="0" xMax="691" yMax="710">
      <contour>
        <pt x="183" y="244" on="1"/>
        <pt x="183" y="300" on="1"/>
        <pt x="487" y="300" on="1"/>
        <pt x="487" y="244" on="1"/>
      </contour>
      <contour>
        <pt x="8" y="0" on="1"/>
        <pt x="8" y="47" on="1"/>
        <pt x="13" y="47" on="1"/>
        <pt x="41" y="47" on="0"/>
        <pt x="73" y="62" on="0"/>
        <pt x="83" y="90" on="1"/>
        <pt x="297" y="710" on="1"/>
        <pt x="399" y="710" on="1"/>
        <pt x="621" y="75" on="1"/>
        <pt x="628" y="56" on="0"/>
        <pt x="661" y="47" on="0"/>
        <pt x="686" y="47" on="1"/>
        <pt x="691" y="47" on="1"/>
        <pt x="691" y="0" on="1"/>
        <pt x="431" y="0" on="1"/>
        <pt x="431" y="47" on="1"/>
        <pt x="448" y="47" on="1"/>
        <pt x="467" y="47" on="0"/>
        <pt x="507" y="49" on="0"/>
        <pt x="534" y="54" on="0"/>
        <pt x="534" y="57" on="1"/>
        <pt x="322" y="672" on="1"/>
        <pt x="322" y="672" on="1"/>
        <pt x="338" y="642" on="1"/>
        <pt x="140" y="65" on="1"/>
        <pt x="140" y="60" on="0"/>
        <pt x="166" y="51" on="0"/>
        <pt x="205" y="47" on="0"/>
        <pt x="224" y="47" on="1"/>
        <pt x="239" y="47" on="1"/>
        <pt x="239" y="0" on="1"/>
      </contour>
    </TTGlyph>
    <TTGlyph name="uni0042" xMin="45" yMin="0" xMax="616" yMax="710">
      <contour>
        <pt x="354" y="344" on="1"/>
        <pt x="214" y="344" on="1"/>
        <pt x="214" y="400" on="1"/>
        <pt x="346" y="400" on="1"/>
        <pt x="426" y="400" on="0"/>
        <pt x="491" y="471" on="0"/>
        <pt x="491" y="529" on="1"/>
        <pt x="491" y="588" on="0"/>
        <pt x="422" y="653" on="0"/>
        <pt x="345" y="653" on="1"/>
        <pt x="234" y="653" on="1"/>
        <pt x="234" y="57" on="1"/>
        <pt x="354" y="57" on="1"/>
        <pt x="411" y="57" on="0"/>
        <pt x="485" y="90" on="0"/>
        <pt x="520" y="154" on="0"/>
        <pt x="520" y="200" on="1"/>
        <pt x="520" y="242" on="0"/>
        <pt x="486" y="307" on="0"/>
        <pt x="413" y="344" on="0"/>
      </contour>
      <contour>
        <pt x="45" y="0" on="1"/>
        <pt x="45" y="47" on="1"/>
        <pt x="56" y="47" on="1"/>
        <pt x="93" y="47" on="0"/>
        <pt x="141" y="61" on="0"/>
        <pt x="141" y="83" on="1"/>
        <pt x="141" y="627" on="1"/>
        <pt x="141" y="649" on="0"/>
        <pt x="93" y="663" on="0"/>
        <pt x="56" y="663" on="1"/>
        <pt x="45" y="663" on="1"/>
        <pt x="45" y="710" on="1"/>
        <pt x="346" y="710" on="1"/>
        <pt x="461" y="710" on="0"/>
        <pt x="585" y="613" on="0"/>
        <pt x="585" y="530" on="1"/>
        <pt x="585" y="480" on="0"/>
        <pt x="529" y="403" on="0"/>
        <pt x="419" y="361" on="0"/>
        <pt x="338" y="361" on="1"/>
        <pt x="418" y="399" on="1"/>
        <pt x="418" y="351" on="1"/>
        <pt x="347" y="387" on="1"/>
        <pt x="434" y="387" on="0"/>
        <pt x="554" y="341" on="0"/>
        <pt x="616" y="256" on="0"/>
        <pt x="616" y="199" on="1"/>
        <pt x="616" y="107" on="0"/>
        <pt x="480" y="0" on="0"/>
        <pt x="356" y="0" on="1"/>
      </contour>
    </TTGlyph>
    <TTGlyph name="uni0043" xMin="47" yMin="-10" xMax="680" yMax="720">
      <contour>
        <pt x="589" y="552" on="1"/>
        <pt x="626" y="552" on="1"/>
        <pt x="610" y="604" on="0"/>
        <pt x="546" y="679" on="0"/>
        <pt x="448" y="720" on="0"/>
        <pt x="379" y="720" on="1"/>
        <pt x="311" y="720" on="0"/>
        <pt x="191" y="667" on="0"/>
        <pt x="99" y="569" on="0"/>
        <pt x="47" y="435" on="0"/>
        <pt x="47" y="355" on="1"/>
        <pt x="47" y="247" on="0"/>
        <pt x="135" y="82" on="0"/>
        <pt x="290" y="-10" on="0"/>
        <pt x="389" y="-10" on="1"/>
        <pt x="465" y="-10" on="0"/>
        <pt x="584" y="52" on="0"/>
        <pt x="663" y="162" on="0"/>
        <pt x="680" y="233" on="1"/>
        <pt x="619" y="256" on="1"/>
        <pt x="605" y="199" on="0"/>
        <pt x="544" y="106" on="0"/>
        <pt x="454" y="52" on="0"/>
        <pt x="395" y="52" on="1"/>
        <pt x="319" y="52" on="0"/>
        <pt x="208" y="127" on="0"/>
        <pt x="147" y="264" on="0"/>
        <pt x="147" y="355" on="1"/>
        <pt x="147" y="447" on="0"/>
        <pt x="210" y="583" on="0"/>
        <pt x="316" y="658" on="0"/>
        <pt x="380" y="658" on="1"/>
        <pt x="439" y="658" on="0"/>
        <pt x="524" y="617" on="0"/>
        <pt x="582" y="545" on="0"/>
        <pt x="598" y="496" on="1"/>
        <pt x="665" y="496" on="1"/>
        <pt x="665" y="710" on="1"/>
        <pt x="605" y="710" on="1"/>
      </contour>
    </TTGlyph>
    <TTGlyph name="uni0044" xMin="45" yMin="0" xMax="726" yMax="710">
      <contour>
        <pt x="45" y="0" on="1"/>
        <pt x="351" y="0" on="1"/>
        <pt x="463" y="0" on="0"/>
        <pt x="631" y="88" on="0"/>
        <pt x="726" y="249" on="0"/>
        <pt x="726" y="357" on="1"/>
        <pt x="726" y="466" on="0"/>
        <pt x="631" y="624" on="0"/>
        <pt x="463" y="710" on="0"/>
        <pt x="351" y="710" on="1"/>
        <pt x="45" y="710" on="1"/>
        <pt x="45" y="663" on="1"/>
        <pt x="57" y="663" on="1"/>
        <pt x="94" y="663" on="0"/>
        <pt x="142" y="647" on="0"/>
        <pt x="142" y="627" on="1"/>
        <pt x="142" y="83" on="1"/>
        <pt x="142" y="61" on="0"/>
        <pt x="94" y="47" on="0"/>
        <pt x="57" y="47" on="1"/>
        <pt x="45" y="47" on="1"/>
      </contour>
      <contour>
        <pt x="351" y="59" on="1"/>
        <pt x="234" y="59" on="1"/>
        <pt x="234" y="651" on="1"/>
        <pt x="351" y="651" on="1"/>
        <pt x="436" y="651" on="0"/>
        <pt x="559" y="582" on="0"/>
        <pt x="626" y="451" on="0"/>
        <pt x="626" y="357" on="1"/>
        <pt x="626" y="263" on="0"/>
        <pt x="559" y="130" on="0"/>
        <pt x="436" y="59" on="0"/>
      </contour>
    </TTGlyph>
    <TTGlyph name="uni0045" xMin="45" yMin="0" xMax="581" yMax="710">
      <contour>
        <pt x="203" y="390" on="1"/>
        <pt x="245" y="392" on="0"/>
        <pt x="328" y="394" on="0"/>
        <pt x="411" y="397" on="0"/>
        <pt x="452" y="398" on="1"/>
        <pt x="452" y="328" on="1"/>
        <pt x="411" y="330" on="0"/>
        <pt x="328" y="333" on="0"/>
        <pt x="245" y="336" on="0"/>
        <pt x="203" y="337" on="1"/>
      </contour>
      <contour>
        <pt x="581" y="0" on="1"/>
        <pt x="45" y="0" on="1"/>
        <pt x="45" y="47" on="1"/>
        <pt x="56" y="47" on="1"/>
        <pt x="93" y="47" on="0"/>
        <pt x="141" y="61" on="0"/>
        <pt x="141" y="83" on="1"/>
        <pt x="141" y="627" on="1"/>
        <pt x="141" y="649" on="0"/>
        <pt x="93" y="663" on="0"/>
        <pt x="56" y="663" on="1"/>
        <pt x="45" y="663" on="1"/>
        <pt x="45" y="710" on="1"/>
        <pt x="551" y="710" on="1"/>
        <pt x="551" y="518" on="1"/>
        <pt x="495" y="518" on="1"/>
        <pt x="486" y="608" on="1"/>
        <pt x="483" y="635" on="0"/>
        <pt x="426" y="651" on="0"/>
        <pt x="361" y="651" on="1"/>
        <pt x="233" y="651" on="1"/>
        <pt x="233" y="59" on="1"/>
        <pt x="390" y="59" on="1"/>
        <pt x="455" y="59" on="0"/>
        <pt x="513" y="75" on="0"/>
        <pt x="515" y="102" on="1"/>
        <pt x="524" y="217" on="1"/>
        <pt x="581" y="217" on="1"/>
      </contour>
    </TTGlyph>
    <TTGlyph name="uni0045.alt" xMin="45" yMin="0" xMax="581" yMax="710">
      <contour>
        <pt x="581" y="217" on="1"/>
        <pt x="581" y="0" on="1"/>
        <pt x="45" y="0" on="1"/>
        <pt x="45" y="47" on="1"/>
        <pt x="56" y="47" on="1"/>
        <pt x="93" y="47" on="0"/>
        <pt x="141" y="61" on="0"/>
        <pt x="141" y="83" on="1"/>
        <pt x="141" y="627" on="1"/>
        <pt x="141" y="649" on="0"/>
        <pt x="93" y="663" on="0"/>
        <pt x="56" y="663" on="1"/>
        <pt x="45" y="663" on="1"/>
        <pt x="45" y="710" on="1"/>
        <pt x="551" y="710" on="1"/>
        <pt x="551" y="518" on="1"/>
        <pt x="495" y="518" on="1"/>
        <pt x="486" y="608" on="1"/>
        <pt x="483" y="635" on="0"/>
        <pt x="426" y="651" on="0"/>
        <pt x="361" y="651" on="1"/>
        <pt x="233" y="651" on="1"/>
        <pt x="233" y="59" on="1"/>
        <pt x="390" y="59" on="1"/>
        <pt x="455" y="59" on="0"/>
        <pt x="513" y="75" on="0"/>
        <pt x="515" y="102" on="1"/>
        <pt x="524" y="217" on="1"/>
      </contour>
      <contour>
        <pt x="203" y="335" on="1"/>
        <pt x="203" y="391" on="1"/>
        <pt x="371" y="391" on="1"/>
        <pt x="393" y="391" on="0"/>
        <pt x="410" y="431" on="0"/>
        <pt x="410" y="457" on="1"/>
        <pt x="410" y="463" on="1"/>
        <pt x="455" y="463" on="1"/>
        <pt x="455" y="264" on="1"/>
        <pt x="410" y="264" on="1"/>
        <pt x="410" y="270" on="1"/>
        <pt x="410" y="296" on="0"/>
        <pt x="393" y="335" on="0"/>
        <pt x="371" y="335" on="1"/>
      </contour>
    </TTGlyph>
    <TTGlyph name="uni0046" xMin="45" yMin="0" xMax="557" yMax="710">
      <contour>
        <pt x="203" y="383" on="1"/>
        <pt x="247" y="385" on="0"/>
        <pt x="336" y="387" on="0"/>
        <pt x="425" y="390" on="0"/>
        <pt x="470" y="391" on="1"/>
        <pt x="470" y="321" on="1"/>
        <pt x="425" y="323" on="0"/>
        <pt x="336" y="326" on="0"/>
        <pt x="247" y="329" on="0"/>
        <pt x="203" y="330" on="1"/>
      </contour>
      <contour>
        <pt x="45" y="0" on="1"/>
        <pt x="45" y="47" on="1"/>
        <pt x="56" y="47" on="1"/>
        <pt x="93" y="47" on="0"/>
        <pt x="141" y="61" on="0"/>
        <pt x="141" y="83" on="1"/>
        <pt x="141" y="627" on="1"/>
        <pt x="141" y="649" on="0"/>
        <pt x="93" y="663" on="0"/>
        <pt x="56" y="663" on="1"/>
        <pt x="45" y="663" on="1"/>
        <pt x="45" y="710" on="1"/>
        <pt x="557" y="710" on="1"/>
        <pt x="557" y="518" on="1"/>
        <pt x="501" y="518" on="1"/>
        <pt x="492" y="608" on="1"/>
        <pt x="489" y="635" on="0"/>
        <pt x="432" y="651" on="0"/>
        <pt x="367" y="651" on="1"/>
        <pt x="233" y="651" on="1"/>
        <pt x="233" y="83" on="1"/>
        <pt x="233" y="66" on="0"/>
        <pt x="263" y="50" on="0"/>
        <pt x="307" y="47" on="0"/>
        <pt x="328" y="47" on="1"/>
        <pt x="345" y="47" on="1"/>
        <pt x="345" y="0" on="1"/>
      </contour>
    </TTGlyph>
    <TTGlyph name="uni0046.alt" xMin="45" yMin="0" xMax="557" yMax="710">
      <contour>
        <pt x="45" y="0" on="1"/>
        <pt x="45" y="47" on="1"/>
        <pt x="56" y="47" on="1"/>
        <pt x="93" y="47" on="0"/>
        <pt x="141" y="61" on="0"/>
        <pt x="141" y="83" on="1"/>
        <pt x="141" y="627" on="1"/>
        <pt x="141" y="649" on="0"/>
        <pt x="93" y="663" on="0"/>
        <pt x="56" y="663" on="1"/>
        <pt x="45" y="663" on="1"/>
        <pt x="45" y="710" on="1"/>
        <pt x="557" y="710" on="1"/>
        <pt x="557" y="518" on="1"/>
        <pt x="501" y="518" on="1"/>
        <pt x="492" y="608" on="1"/>
        <pt x="489" y="635" on="0"/>
        <pt x="432" y="651" on="0"/>
        <pt x="367" y="651" on="1"/>
        <pt x="233" y="651" on="1"/>
        <pt x="233" y="83" on="1"/>
        <pt x="233" y="66" on="0"/>
        <pt x="263" y="50" on="0"/>
        <pt x="307" y="47" on="0"/>
        <pt x="328" y="47" on="1"/>
        <pt x="345" y="47" on="1"/>
        <pt x="345" y="0" on="1"/>
      </contour>
      <contour>
        <pt x="190" y="325" on="1"/>
        <pt x="190" y="381" on="1"/>
        <pt x="387" y="381" on="1"/>
        <pt x="409" y="381" on="0"/>
        <pt x="426" y="421" on="0"/>
        <pt x="426" y="447" on="1"/>
        <pt x="426" y="453" on="1"/>
        <pt x="471" y="453" on="1"/>
        <pt x="471" y="254" on="1"/>
        <pt x="426" y="254" on="1"/>
        <pt x="426" y="260" on="1"/>
        <pt x="426" y="286" on="0"/>
        <pt x="409" y="325" on="0"/>
        <pt x="387" y="325" on="1"/>
      </contour>
    </TTGlyph>
    <TTGlyph name="uni0047" xMin="47" yMin="-10" xMax="758" yMax="720">
      <contour>
        <pt x="493" y="353" on="1"/>
        <pt x="758" y="353" on="1"/>
        <pt x="758" y="306" on="1"/>
        <pt x="754" y="306" on="1"/>
        <pt x="722" y="306" on="0"/>
        <pt x="679" y="292" on="0"/>
        <pt x="679" y="270" on="1"/>
        <pt x="679" y="104" on="1"/>
        <pt x="660" y="79" on="0"/>
        <pt x="578" y="26" on="0"/>
        <pt x="468" y="-10" on="0"/>
        <pt x="406" y="-10" on="1"/>
        <pt x="299" y="-10" on="0"/>
        <pt x="137" y="82" on="0"/>
        <pt x="47" y="246" on="0"/>
        <pt x="47" y="355" on="1"/>
        <pt x="47" y="435" on="0"/>
        <pt x="100" y="569" on="0"/>
        <pt x="195" y="667" on="0"/>
        <pt x="321" y="720" on="0"/>
        <pt x="393" y="720" on="1"/>
        <pt x="459" y="720" on="0"/>
        <pt x="559" y="679" on="0"/>
        <pt x="626" y="604" on="0"/>
        <pt x="641" y="553" on="1"/>
        <pt x="605" y="553" on="1"/>
        <pt x="621" y="710" on="1"/>
        <pt x="681" y="710" on="1"/>
        <pt x="681" y="496" on="1"/>
        <pt x="614" y="496" on="1"/>
        <pt x="598" y="545" on="0"/>
        <pt x="539" y="617" on="0"/>
        <pt x="452" y="658" on="0"/>
        <pt x="393" y="658" on="1"/>
        <pt x="323" y="658" on="0"/>
        <pt x="211" y="583" on="0"/>
        <pt x="147" y="447" on="0"/>
        <pt x="147" y="355" on="1"/>
        <pt x="147" y="261" on="0"/>
        <pt x="209" y="125" on="0"/>
        <pt x="326" y="52" on="0"/>
        <pt x="407" y="52" on="1"/>
        <pt x="459" y="52" on="0"/>
        <pt x="533" y="77" on="0"/>
        <pt x="579" y="109" on="0"/>
        <pt x="589" y="118" on="1"/>
        <pt x="589" y="270" on="1"/>
        <pt x="589" y="292" on="0"/>
        <pt x="541" y="306" on="0"/>
        <pt x="504" y="306" on="1"/>
        <pt x="493" y="306" on="1"/>
      </contour>
    </TTGlyph>
    <TTGlyph name="uni0048" xMin="45" yMin="0" xMax="788" yMax="710">
      <contour>
        <pt x="202" y="395" on="1"/>
        <pt x="631" y="395" on="1"/>
        <pt x="631" y="337" on="1"/>
        <pt x="202" y="337" on="1"/>
      </contour>
      <contour>
        <pt x="45" y="0" on="1"/>
        <pt x="45" y="47" on="1"/>
        <pt x="56" y="47" on="1"/>
        <pt x="93" y="47" on="0"/>
        <pt x="141" y="61" on="0"/>
        <pt x="141" y="83" on="1"/>
        <pt x="141" y="627" on="1"/>
        <pt x="141" y="649" on="0"/>
        <pt x="93" y="663" on="0"/>
        <pt x="56" y="663" on="1"/>
        <pt x="45" y="663" on="1"/>
        <pt x="45" y="710" on="1"/>
        <pt x="330" y="710" on="1"/>
        <pt x="330" y="663" on="1"/>
        <pt x="321" y="663" on="1"/>
        <pt x="302" y="663" on="0"/>
        <pt x="262" y="661" on="0"/>
        <pt x="234" y="657" on="0"/>
        <pt x="234" y="653" on="1"/>
        <pt x="234" y="57" on="1"/>
        <pt x="234" y="54" on="0"/>
        <pt x="262" y="49" on="0"/>
        <pt x="302" y="47" on="0"/>
        <pt x="321" y="47" on="1"/>
        <pt x="330" y="47" on="1"/>
        <pt x="330" y="0" on="1"/>
      </contour>
      <contour>
        <pt x="503" y="0" on="1"/>
        <pt x="503" y="47" on="1"/>
        <pt x="512" y="47" on="1"/>
        <pt x="531" y="47" on="0"/>
        <pt x="571" y="49" on="0"/>
        <pt x="599" y="54" on="0"/>
        <pt x="599" y="57" on="1"/>
        <pt x="599" y="653" on="1"/>
        <pt x="599" y="657" on="0"/>
        <pt x="571" y="661" on="0"/>
        <pt x="531" y="663" on="0"/>
        <pt x="512" y="663" on="1"/>
        <pt x="503" y="663" on="1"/>
        <pt x="503" y="710" on="1"/>
        <pt x="788" y="710" on="1"/>
        <pt x="788" y="663" on="1"/>
        <pt x="777" y="663" on="1"/>
        <pt x="740" y="663" on="0"/>
        <pt x="692" y="649" on="0"/>
        <pt x="692" y="627" on="1"/>
        <pt x="692" y="83" on="1"/>
        <pt x="692" y="61" on="0"/>
        <pt x="740" y="47" on="0"/>
        <pt x="777" y="47" on="1"/>
        <pt x="788" y="47" on="1"/>
        <pt x="788" y="0" on="1"/>
      </contour>
    </TTGlyph>
    <TTGlyph name="uni0049" xMin="45" yMin="0" xMax="330" yMax="710">
      <contour>
        <pt x="234" y="627" on="1"/>
        <pt x="234" y="83" on="1"/>
        <pt x="234" y="61" on="0"/>
        <pt x="282" y="47" on="0"/>
        <pt x="319" y="47" on="1"/>
        <pt x="330" y="47" on="1"/>
        <pt x="330" y="0" on="1"/>
        <pt x="45" y="0" on="1"/>
        <pt x="45" y="47" on="1"/>
        <pt x="56" y="47" on="1"/>
        <pt x="93" y="47" on="0"/>
        <pt x="141" y="61" on="0"/>
        <pt x="141" y="83" on="1"/>
        <pt x="141" y="627" on="1"/>
        <pt x="141" y="649" on="0"/>
        <pt x="93" y="663" on="0"/>
        <pt x="56" y="663" on="1"/>
        <pt x="45" y="663" on="1"/>
        <pt x="45" y="710" on="1"/>
        <pt x="330" y="710" on="1"/>
        <pt x="330" y="663" on="1"/>
        <pt x="319" y="663" on="1"/>
        <pt x="282" y="663" on="0"/>
        <pt x="234" y="649" on="0"/>
      </contour>
    </TTGlyph>
    <TTGlyph name="uni004A" xMin="33" yMin="-10" xMax="523" yMax="710">
      <contour>
        <pt x="231" y="710" on="1"/>
        <pt x="523" y="710" on="1"/>
        <pt x="523" y="663" on="1"/>
        <pt x="512" y="663" on="1"/>
        <pt x="475" y="663" on="0"/>
        <pt x="427" y="649" on="0"/>
        <pt x="427" y="627" on="1"/>
        <pt x="427" y="242" on="1"/>
        <pt x="427" y="148" on="0"/>
        <pt x="374" y="37" on="0"/>
        <pt x="277" y="-10" on="0"/>
        <pt x="210" y="-10" on="1"/>
        <pt x="149" y="-10" on="0"/>
        <pt x="59" y="32" on="0"/>
        <pt x="33" y="60" on="1"/>
        <pt x="33" y="164" on="1"/>
        <pt x="126" y="164" on="1"/>
        <pt x="126" y="67" on="1"/>
        <pt x="108" y="72" on="0"/>
        <pt x="87" y="97" on="0"/>
        <pt x="82" y="119" on="0"/>
        <pt x="93" y="121" on="0"/>
        <pt x="105" y="103" on="1"/>
        <pt x="119" y="81" on="0"/>
        <pt x="170" y="50" on="0"/>
        <pt x="210" y="50" on="1"/>
        <pt x="250" y="50" on="0"/>
        <pt x="307" y="83" on="0"/>
        <pt x="337" y="166" on="0"/>
        <pt x="337" y="242" on="1"/>
        <pt x="337" y="627" on="1"/>
        <pt x="337" y="649" on="0"/>
        <pt x="289" y="663" on="0"/>
        <pt x="252" y="663" on="1"/>
        <pt x="231" y="663" on="1"/>
      </contour>
    </TTGlyph>
    <TTGlyph name="uni004B" xMin="45" yMin="0" xMax="713" yMax="710">
      <contour>
        <pt x="45" y="0" on="1"/>
        <pt x="45" y="47" on="1"/>
        <pt x="56" y="47" on="1"/>
        <pt x="93" y="47" on="0"/>
        <pt x="141" y="61" on="0"/>
        <pt x="141" y="83" on="1"/>
        <pt x="141" y="627" on="1"/>
        <pt x="141" y="649" on="0"/>
        <pt x="93" y="663" on="0"/>
        <pt x="56" y="663" on="1"/>
        <pt x="45" y="663" on="1"/>
        <pt x="45" y="710" on="1"/>
        <pt x="330" y="710" on="1"/>
        <pt x="330" y="663" on="1"/>
        <pt x="321" y="663" on="1"/>
        <pt x="302" y="663" on="0"/>
        <pt x="262" y="661" on="0"/>
        <pt x="234" y="657" on="0"/>
        <pt x="234" y="653" on="1"/>
        <pt x="234" y="57" on="1"/>
        <pt x="234" y="54" on="0"/>
        <pt x="262" y="49" on="0"/>
        <pt x="302" y="47" on="0"/>
        <pt x="321" y="47" on="1"/>
        <pt x="330" y="47" on="1"/>
        <pt x="330" y="0" on="1"/>
      </contour>
      <contour>
        <pt x="423" y="0" on="1"/>
        <pt x="423" y="47" on="1"/>
        <pt x="432" y="47" on="1"/>
        <pt x="451" y="47" on="0"/>
        <pt x="489" y="49" on="0"/>
        <pt x="516" y="54" on="0"/>
        <pt x="516" y="57" on="1"/>
        <pt x="266" y="347" on="1"/>
        <pt x="266" y="364" on="1"/>
        <pt x="527" y="653" on="1"/>
        <pt x="526" y="657" on="0"/>
        <pt x="502" y="661" on="0"/>
        <pt x="466" y="663" on="0"/>
        <pt x="447" y="663" on="1"/>
        <pt x="438" y="663" on="1"/>
        <pt x="438" y="710" on="1"/>
        <pt x="684" y="710" on="1"/>
        <pt x="684" y="663" on="1"/>
        <pt x="668" y="663" on="1"/>
        <pt x="650" y="663" on="0"/>
        <pt x="622" y="658" on="0"/>
        <pt x="600" y="646" on="0"/>
        <pt x="589" y="634" on="1"/>
        <pt x="336" y="356" on="1"/>
        <pt x="336" y="401" on="1"/>
        <pt x="613" y="80" on="1"/>
        <pt x="632" y="58" on="0"/>
        <pt x="668" y="47" on="0"/>
        <pt x="702" y="47" on="1"/>
        <pt x="713" y="47" on="1"/>
        <pt x="713" y="0" on="1"/>
      </contour>
    </TTGlyph>
    <TTGlyph name="uni004C" xMin="45" yMin="0" xMax="576" yMax="710">
      <contour>
        <pt x="334" y="710" on="1"/>
        <pt x="45" y="710" on="1"/>
        <pt x="45" y="663" on="1"/>
        <pt x="56" y="663" on="1"/>
        <pt x="93" y="663" on="0"/>
        <pt x="141" y="649" on="0"/>
        <pt x="141" y="627" on="1"/>
        <pt x="141" y="83" on="1"/>
        <pt x="141" y="61" on="0"/>
        <pt x="93" y="47" on="0"/>
        <pt x="56" y="47" on="1"/>
        <pt x="45" y="47" on="1"/>
        <pt x="45" y="0" on="1"/>
        <pt x="576" y="0" on="1"/>
        <pt x="576" y="224" on="1"/>
        <pt x="516" y="224" on="1"/>
        <pt x="507" y="102" on="1"/>
        <pt x="506" y="84" on="0"/>
        <pt x="479" y="66" on="0"/>
        <pt x="425" y="59" on="0"/>
        <pt x="382" y="59" on="1"/>
        <pt x="234" y="59" on="1"/>
        <pt x="234" y="627" on="1"/>
        <pt x="234" y="649" on="0"/>
        <pt x="284" y="663" on="0"/>
        <pt x="323" y="663" on="1"/>
        <pt x="334" y="663" on="1"/>
      </contour>
    </TTGlyph>
    <TTGlyph name="uni004D" xMin="45" yMin="-2" xMax="908" yMax="710">
      <contour>
        <pt x="45" y="0" on="1"/>
        <pt x="45" y="47" on="1"/>
        <pt x="56" y="47" on="1"/>
        <pt x="93" y="47" on="0"/>
        <pt x="141" y="61" on="0"/>
        <pt x="141" y="83" on="1"/>
        <pt x="141" y="627" on="1"/>
        <pt x="141" y="649" on="0"/>
        <pt x="93" y="663" on="0"/>
        <pt x="56" y="663" on="1"/>
        <pt x="45" y="663" on="1"/>
        <pt x="45" y="710" on="1"/>
        <pt x="285" y="710" on="1"/>
        <pt x="486" y="89" on="1"/>
        <pt x="486" y="89" on="1"/>
        <pt x="467" y="92" on="1"/>
        <pt x="673" y="710" on="1"/>
        <pt x="908" y="710" on="1"/>
        <pt x="908" y="663" on="1"/>
        <pt x="897" y="663" on="1"/>
        <pt x="860" y="663" on="0"/>
        <pt x="812" y="649" on="0"/>
        <pt x="812" y="627" on="1"/>
        <pt x="812" y="83" on="1"/>
        <pt x="812" y="61" on="0"/>
        <pt x="860" y="47" on="0"/>
        <pt x="897" y="47" on="1"/>
        <pt x="908" y="47" on="1"/>
        <pt x="908" y="0" on="1"/>
        <pt x="633" y="0" on="1"/>
        <pt x="633" y="47" on="1"/>
        <pt x="642" y="47" on="1"/>
        <pt x="661" y="47" on="0"/>
        <pt x="696" y="49" on="0"/>
        <pt x="719" y="54" on="0"/>
        <pt x="719" y="57" on="1"/>
        <pt x="719" y="688" on="1"/>
        <pt x="719" y="688" on="1"/>
        <pt x="729" y="686" on="1"/>
        <pt x="492" y="-2" on="1"/>
        <pt x="433" y="-2" on="1"/>
        <pt x="196" y="687" on="1"/>
        <pt x="196" y="687" on="1"/>
        <pt x="206" y="675" on="1"/>
        <pt x="206" y="57" on="1"/>
        <pt x="206" y="54" on="0"/>
        <pt x="233" y="49" on="0"/>
        <pt x="272" y="47" on="0"/>
        <pt x="288" y="47" on="1"/>
        <pt x="292" y="47" on="1"/>
        <pt x="292" y="0" on="1"/>
      </contour>
    </TTGlyph>
    <TTGlyph name="uni004E" xMin="45" yMin="0" xMax="763" yMax="710">
      <contour>
        <pt x="45" y="0" on="1"/>
        <pt x="312" y="0" on="1"/>
        <pt x="312" y="47" on="1"/>
        <pt x="298" y="47" on="1"/>
        <pt x="277" y="47" on="0"/>
        <pt x="234" y="52" on="0"/>
        <pt x="206" y="59" on="0"/>
        <pt x="206" y="62" on="1"/>
        <pt x="206" y="674" on="1"/>
        <pt x="194" y="670" on="1"/>
        <pt x="194" y="670" on="1"/>
        <pt x="570" y="0" on="1"/>
        <pt x="666" y="0" on="1"/>
        <pt x="666" y="622" on="1"/>
        <pt x="666" y="644" on="0"/>
        <pt x="714" y="663" on="0"/>
        <pt x="751" y="663" on="1"/>
        <pt x="763" y="663" on="1"/>
        <pt x="763" y="710" on="1"/>
        <pt x="496" y="710" on="1"/>
        <pt x="496" y="663" on="1"/>
        <pt x="510" y="663" on="1"/>
        <pt x="532" y="663" on="0"/>
        <pt x="574" y="658" on="0"/>
        <pt x="602" y="652" on="0"/>
        <pt x="602" y="648" on="1"/>
        <pt x="602" y="90" on="1"/>
        <pt x="613" y="93" on="1"/>
        <pt x="613" y="93" on="1"/>
        <pt x="268" y="710" on="1"/>
        <pt x="45" y="710" on="1"/>
        <pt x="45" y="663" on="1"/>
        <pt x="56" y="663" on="1"/>
        <pt x="93" y="663" on="0"/>
        <pt x="141" y="649" on="0"/>
        <pt x="141" y="627" on="1"/>
        <pt x="141" y="88" on="1"/>
        <pt x="141" y="66" on="0"/>
        <pt x="93" y="47" on="0"/>
        <pt x="56" y="47" on="1"/>
        <pt x="45" y="47" on="1"/>
      </contour>
    </TTGlyph>
    <TTGlyph name="uni004F" xMin="47" yMin="-10" xMax="747" yMax="720">
      <contour>
        <pt x="397" y="-10" on="1"/>
        <pt x="323" y="-10" on="0"/>
        <pt x="196" y="43" on="0"/>
        <pt x="100" y="140" on="0"/>
        <pt x="47" y="274" on="0"/>
        <pt x="47" y="355" on="1"/>
        <pt x="47" y="436" on="0"/>
        <pt x="100" y="570" on="0"/>
        <pt x="196" y="667" on="0"/>
        <pt x="323" y="720" on="0"/>
        <pt x="397" y="720" on="1"/>
        <pt x="471" y="720" on="0"/>
        <pt x="598" y="667" on="0"/>
        <pt x="694" y="570" on="0"/>
        <pt x="747" y="436" on="0"/>
        <pt x="747" y="355" on="1"/>
        <pt x="747" y="274" on="0"/>
        <pt x="694" y="140" on="0"/>
        <pt x="598" y="43" on="0"/>
        <pt x="471" y="-10" on="0"/>
      </contour>
      <contour>
        <pt x="397" y="50" on="1"/>
        <pt x="470" y="50" on="0"/>
        <pt x="582" y="125" on="0"/>
        <pt x="647" y="262" on="0"/>
        <pt x="647" y="355" on="1"/>
        <pt x="647" y="449" on="0"/>
        <pt x="582" y="585" on="0"/>
        <pt x="470" y="660" on="0"/>
        <pt x="397" y="660" on="1"/>
        <pt x="324" y="660" on="0"/>
        <pt x="211" y="585" on="0"/>
        <pt x="147" y="449" on="0"/>
        <pt x="147" y="355" on="1"/>
        <pt x="147" y="262" on="0"/>
        <pt x="212" y="125" on="0"/>
        <pt x="325" y="50" on="0"/>
      </contour>
    </TTGlyph>
    <TTGlyph name="uni0050" xMin="48" yMin="0" xMax="608" yMax="710">
      <contour>
        <pt x="48" y="0" on="1"/>
        <pt x="48" y="47" on="1"/>
        <pt x="59" y="47" on="1"/>
        <pt x="96" y="47" on="0"/>
        <pt x="144" y="61" on="0"/>
        <pt x="144" y="83" on="1"/>
        <pt x="144" y="627" on="1"/>
        <pt x="144" y="649" on="0"/>
        <pt x="96" y="663" on="0"/>
        <pt x="59" y="663" on="1"/>
        <pt x="48" y="663" on="1"/>
        <pt x="48" y="710" on="1"/>
        <pt x="345" y="710" on="1"/>
        <pt x="470" y="710" on="0"/>
        <pt x="608" y="596" on="0"/>
        <pt x="608" y="501" on="1"/>
        <pt x="608" y="437" on="0"/>
        <pt x="543" y="339" on="0"/>
        <pt x="423" y="283" on="0"/>
        <pt x="340" y="283" on="1"/>
        <pt x="236" y="283" on="1"/>
        <pt x="236" y="57" on="1"/>
        <pt x="236" y="54" on="0"/>
        <pt x="260" y="49" on="0"/>
        <pt x="296" y="47" on="0"/>
        <pt x="313" y="47" on="1"/>
        <pt x="340" y="47" on="1"/>
        <pt x="340" y="0" on="1"/>
      </contour>
      <contour>
        <pt x="343" y="651" on="1"/>
        <pt x="236" y="651" on="1"/>
        <pt x="236" y="340" on="1"/>
        <pt x="338" y="340" on="1"/>
        <pt x="425" y="340" on="0"/>
        <pt x="508" y="428" on="0"/>
        <pt x="508" y="500" on="1"/>
        <pt x="508" y="571" on="0"/>
        <pt x="426" y="651" on="0"/>
      </contour>
    </TTGlyph>
    <TTGlyph name="uni0051" xMin="47" yMin="-184" xMax="747" yMax="720">
      <contour>
        <pt x="359" y="3" on="1"/>
        <pt x="428" y="10" on="1"/>
        <pt x="426" y="-32" on="0"/>
        <pt x="459" y="-83" on="0"/>
        <pt x="522" y="-106" on="0"/>
        <pt x="563" y="-106" on="1"/>
        <pt x="597" y="-106" on="0"/>
        <pt x="647" y="-98" on="0"/>
        <pt x="693" y="-85" on="0"/>
        <pt x="718" y="-78" on="1"/>
        <pt x="718" y="-168" on="1"/>
        <pt x="684" y="-175" on="0"/>
        <pt x="613" y="-184" on="0"/>
        <pt x="576" y="-184" on="1"/>
        <pt x="512" y="-184" on="0"/>
        <pt x="411" y="-147" on="0"/>
        <pt x="356" y="-64" on="0"/>
      </contour>
      <contour>
        <pt x="397" y="-10" on="1"/>
        <pt x="324" y="-10" on="0"/>
        <pt x="196" y="43" on="0"/>
        <pt x="101" y="140" on="0"/>
        <pt x="47" y="274" on="0"/>
        <pt x="47" y="355" on="1"/>
        <pt x="47" y="436" on="0"/>
        <pt x="101" y="570" on="0"/>
        <pt x="196" y="667" on="0"/>
        <pt x="324" y="720" on="0"/>
        <pt x="397" y="720" on="1"/>
        <pt x="471" y="720" on="0"/>
        <pt x="598" y="667" on="0"/>
        <pt x="694" y="570" on="0"/>
        <pt x="747" y="436" on="0"/>
        <pt x="747" y="355" on="1"/>
        <pt x="747" y="274" on="0"/>
        <pt x="694" y="140" on="0"/>
        <pt x="598" y="43" on="0"/>
        <pt x="471" y="-10" on="0"/>
      </contour>
      <contour>
        <pt x="397" y="50" on="1"/>
        <pt x="470" y="50" on="0"/>
        <pt x="582" y="125" on="0"/>
        <pt x="647" y="262" on="0"/>
        <pt x="647" y="355" on="1"/>
        <pt x="647" y="449" on="0"/>
        <pt x="582" y="585" on="0"/>
        <pt x="470" y="660" on="0"/>
        <pt x="397" y="660" on="1"/>
        <pt x="325" y="660" on="0"/>
        <pt x="212" y="585" on="0"/>
        <pt x="147" y="449" on="0"/>
        <pt x="147" y="355" on="1"/>
        <pt x="147" y="262" on="0"/>
        <pt x="212" y="125" on="0"/>
        <pt x="325" y="50" on="0"/>
      </contour>
    </TTGlyph>
    <TTGlyph name="uni0052" xMin="45" yMin="0" xMax="672" yMax="710">
      <contour>
        <pt x="213" y="357" on="1"/>
        <pt x="327" y="357" on="1"/>
        <pt x="384" y="357" on="0"/>
        <pt x="456" y="393" on="0"/>
        <pt x="491" y="460" on="0"/>
        <pt x="491" y="506" on="1"/>
        <pt x="491" y="573" on="0"/>
        <pt x="411" y="651" on="0"/>
        <pt x="331" y="651" on="1"/>
        <pt x="233" y="651" on="1"/>
        <pt x="233" y="57" on="1"/>
        <pt x="233" y="52" on="0"/>
        <pt x="285" y="47" on="0"/>
        <pt x="310" y="47" on="1"/>
        <pt x="323" y="47" on="1"/>
        <pt x="323" y="0" on="1"/>
        <pt x="45" y="0" on="1"/>
        <pt x="45" y="47" on="1"/>
        <pt x="56" y="47" on="1"/>
        <pt x="93" y="47" on="0"/>
        <pt x="141" y="61" on="0"/>
        <pt x="141" y="83" on="1"/>
        <pt x="141" y="627" on="1"/>
        <pt x="141" y="649" on="0"/>
        <pt x="93" y="663" on="0"/>
        <pt x="56" y="663" on="1"/>
        <pt x="45" y="663" on="1"/>
        <pt x="45" y="710" on="1"/>
        <pt x="333" y="710" on="1"/>
        <pt x="414" y="710" on="0"/>
        <pt x="529" y="659" on="0"/>
        <pt x="591" y="567" on="0"/>
        <pt x="591" y="506" on="1"/>
        <pt x="591" y="433" on="0"/>
        <pt x="500" y="331" on="0"/>
        <pt x="420" y="311" on="1"/>
        <pt x="399" y="307" on="0"/>
        <pt x="353" y="301" on="0"/>
        <pt x="327" y="301" on="1"/>
        <pt x="213" y="301" on="1"/>
      </contour>
      <contour>
        <pt x="358" y="321" on="1"/>
        <pt x="447" y="336" on="1"/>
        <pt x="594" y="75" on="1"/>
        <pt x="604" y="58" on="0"/>
        <pt x="638" y="47" on="0"/>
        <pt x="663" y="47" on="1"/>
        <pt x="672" y="47" on="1"/>
        <pt x="672" y="0" on="1"/>
        <pt x="526" y="0" on="1"/>
      </contour>
    </TTGlyph>
    <TTGlyph name="uni0053" xMin="45" yMin="-10" xMax="573" yMax="720">
      <contour>
        <pt x="342" y="-10" on="1"/>
        <pt x="285" y="-10" on="0"/>
        <pt x="180" y="27" on="0"/>
        <pt x="98" y="107" on="0"/>
        <pt x="75" y="174" on="1"/>
        <pt x="84" y="166" on="0"/>
        <pt x="101" y="167" on="0"/>
        <pt x="116" y="173" on="0"/>
        <pt x="121" y="170" on="1"/>
        <pt x="106" y="0" on="1"/>
        <pt x="45" y="0" on="1"/>
        <pt x="45" y="221" on="1"/>
        <pt x="109" y="221" on="1"/>
        <pt x="134" y="145" on="0"/>
        <pt x="257" y="50" on="0"/>
        <pt x="338" y="50" on="1"/>
        <pt x="383" y="50" on="0"/>
        <pt x="448" y="76" on="0"/>
        <pt x="484" y="131" on="0"/>
        <pt x="484" y="173" on="1"/>
        <pt x="484" y="212" on="0"/>
        <pt x="452" y="264" on="0"/>
        <pt x="398" y="297" on="0"/>
        <pt x="329" y="320" on="0"/>
        <pt x="292" y="330" on="1"/>
        <pt x="252" y="341" on="0"/>
        <pt x="173" y="369" on="0"/>
        <pt x="109" y="415" on="0"/>
        <pt x="71" y="485" on="0"/>
        <pt x="71" y="538" on="1"/>
        <pt x="71" y="594" on="0"/>
        <pt x="128" y="675" on="0"/>
        <pt x="223" y="720" on="0"/>
        <pt x="280" y="720" on="1"/>
        <pt x="325" y="720" on="0"/>
        <pt x="405" y="695" on="0"/>
        <pt x="473" y="631" on="0"/>
        <pt x="497" y="571" on="1"/>
        <pt x="488" y="570" on="0"/>
        <pt x="469" y="561" on="0"/>
        <pt x="461" y="565" on="1"/>
        <pt x="476" y="710" on="1"/>
        <pt x="533" y="710" on="1"/>
        <pt x="533" y="524" on="1"/>
        <pt x="469" y="524" on="1"/>
        <pt x="453" y="567" on="0"/>
        <pt x="400" y="628" on="0"/>
        <pt x="330" y="661" on="0"/>
        <pt x="289" y="661" on="1"/>
        <pt x="225" y="661" on="0"/>
        <pt x="155" y="599" on="0"/>
        <pt x="155" y="546" on="1"/>
        <pt x="155" y="501" on="0"/>
        <pt x="210" y="450" on="0"/>
        <pt x="298" y="420" on="0"/>
        <pt x="348" y="406" on="1"/>
        <pt x="390" y="395" on="0"/>
        <pt x="470" y="366" on="0"/>
        <pt x="535" y="320" on="0"/>
        <pt x="573" y="248" on="0"/>
        <pt x="573" y="194" on="1"/>
        <pt x="573" y="129" on="0"/>
        <pt x="510" y="37" on="0"/>
        <pt x="405" y="-10" on="0"/>
      </contour>
    </TTGlyph>
    <TTGlyph name="uni0054" xMin="40" yMin="0" xMax="629" yMax="710">
      <contour>
        <pt x="629" y="710" on="1"/>
        <pt x="40" y="710" on="1"/>
        <pt x="40" y="513" on="1"/>
        <pt x="96" y="513" on="1"/>
        <pt x="105" y="611" on="1"/>
        <pt x="107" y="638" on="0"/>
        <pt x="166" y="654" on="0"/>
        <pt x="230" y="654" on="1"/>
        <pt x="288" y="654" on="1"/>
        <pt x="288" y="83" on="1"/>
        <pt x="288" y="61" on="0"/>
        <pt x="240" y="47" on="0"/>
        <pt x="203" y="47" on="1"/>
        <pt x="187" y="47" on="1"/>
        <pt x="187" y="0" on="1"/>
        <pt x="482" y="0" on="1"/>
        <pt x="482" y="47" on="1"/>
        <pt x="466" y="47" on="1"/>
        <pt x="429" y="47" on="0"/>
        <pt x="381" y="61" on="0"/>
        <pt x="381" y="83" on="1"/>
        <pt x="381" y="654" on="1"/>
        <pt x="439" y="654" on="1"/>
        <pt x="504" y="654" on="0"/>
        <pt x="562" y="638" on="0"/>
        <pt x="564" y="611" on="1"/>
        <pt x="573" y="513" on="1"/>
        <pt x="629" y="513" on="1"/>
      </contour>
    </TTGlyph>
    <TTGlyph name="uni0055" xMin="43" yMin="-10" xMax="764" yMax="710">
      <contour>
        <pt x="232" y="271" on="1"/>
        <pt x="232" y="191" on="0"/>
        <pt x="280" y="98" on="0"/>
        <pt x="365" y="59" on="0"/>
        <pt x="419" y="59" on="1"/>
        <pt x="472" y="59" on="0"/>
        <pt x="555" y="98" on="0"/>
        <pt x="603" y="191" on="0"/>
        <pt x="603" y="271" on="1"/>
        <pt x="603" y="641" on="1"/>
        <pt x="603" y="648" on="0"/>
        <pt x="575" y="658" on="0"/>
        <pt x="535" y="663" on="0"/>
        <pt x="516" y="663" on="1"/>
        <pt x="507" y="663" on="1"/>
        <pt x="507" y="710" on="1"/>
        <pt x="764" y="710" on="1"/>
        <pt x="764" y="663" on="1"/>
        <pt x="753" y="663" on="1"/>
        <pt x="716" y="663" on="0"/>
        <pt x="668" y="643" on="0"/>
        <pt x="668" y="617" on="1"/>
        <pt x="668" y="271" on="1"/>
        <pt x="668" y="171" on="0"/>
        <pt x="598" y="47" on="0"/>
        <pt x="480" y="-10" on="0"/>
        <pt x="408" y="-10" on="1"/>
        <pt x="331" y="-10" on="0"/>
        <pt x="209" y="47" on="0"/>
        <pt x="139" y="171" on="0"/>
        <pt x="139" y="271" on="1"/>
        <pt x="139" y="627" on="1"/>
        <pt x="139" y="649" on="0"/>
        <pt x="91" y="663" on="0"/>
        <pt x="54" y="663" on="1"/>
        <pt x="43" y="663" on="1"/>
        <pt x="43" y="710" on="1"/>
        <pt x="328" y="710" on="1"/>
        <pt x="328" y="663" on="1"/>
        <pt x="319" y="663" on="1"/>
        <pt x="300" y="663" on="0"/>
        <pt x="260" y="661" on="0"/>
        <pt x="232" y="657" on="0"/>
        <pt x="232" y="653" on="1"/>
      </contour>
    </TTGlyph>
    <TTGlyph name="uni0056" xMin="8" yMin="0" xMax="691" yMax="710">
      <contour>
        <pt x="300" y="0" on="1"/>
        <pt x="402" y="0" on="1"/>
        <pt x="616" y="620" on="1"/>
        <pt x="626" y="648" on="0"/>
        <pt x="658" y="663" on="0"/>
        <pt x="686" y="663" on="1"/>
        <pt x="691" y="663" on="1"/>
        <pt x="691" y="710" on="1"/>
        <pt x="460" y="710" on="1"/>
        <pt x="460" y="663" on="1"/>
        <pt x="475" y="663" on="1"/>
        <pt x="494" y="663" on="0"/>
        <pt x="533" y="659" on="0"/>
        <pt x="559" y="651" on="0"/>
        <pt x="559" y="645" on="1"/>
        <pt x="361" y="68" on="1"/>
        <pt x="377" y="38" on="1"/>
        <pt x="377" y="38" on="1"/>
        <pt x="165" y="653" on="1"/>
        <pt x="165" y="657" on="0"/>
        <pt x="192" y="661" on="0"/>
        <pt x="232" y="663" on="0"/>
        <pt x="251" y="663" on="1"/>
        <pt x="268" y="663" on="1"/>
        <pt x="268" y="710" on="1"/>
        <pt x="8" y="710" on="1"/>
        <pt x="8" y="663" on="1"/>
        <pt x="13" y="663" on="1"/>
        <pt x="39" y="663" on="0"/>
        <pt x="71" y="655" on="0"/>
        <pt x="78" y="635" on="1"/>
      </contour>
    </TTGlyph>
    <TTGlyph name="uni0057" xMin="8" yMin="0" xMax="1005" yMax="710">
      <contour>
        <pt x="8" y="710" on="1"/>
        <pt x="267" y="710" on="1"/>
        <pt x="267" y="663" on="1"/>
        <pt x="250" y="663" on="1"/>
        <pt x="231" y="663" on="0"/>
        <pt x="191" y="661" on="0"/>
        <pt x="164" y="657" on="0"/>
        <pt x="164" y="653" on="1"/>
        <pt x="322" y="47" on="1"/>
        <pt x="303" y="47" on="1"/>
        <pt x="470" y="710" on="1"/>
        <pt x="566" y="710" on="1"/>
        <pt x="745" y="50" on="1"/>
        <pt x="727" y="50" on="1"/>
        <pt x="872" y="645" on="1"/>
        <pt x="872" y="651" on="0"/>
        <pt x="846" y="659" on="0"/>
        <pt x="807" y="663" on="0"/>
        <pt x="788" y="663" on="1"/>
        <pt x="773" y="663" on="1"/>
        <pt x="773" y="710" on="1"/>
        <pt x="1005" y="710" on="1"/>
        <pt x="1005" y="663" on="1"/>
        <pt x="1000" y="663" on="1"/>
        <pt x="974" y="663" on="0"/>
        <pt x="938" y="646" on="0"/>
        <pt x="931" y="620" on="1"/>
        <pt x="776" y="0" on="1"/>
        <pt x="676" y="0" on="1"/>
        <pt x="500" y="645" on="1"/>
        <pt x="517" y="645" on="1"/>
        <pt x="351" y="0" on="1"/>
        <pt x="250" y="0" on="1"/>
        <pt x="82" y="626" on="1"/>
        <pt x="75" y="652" on="0"/>
        <pt x="41" y="663" on="0"/>
        <pt x="13" y="663" on="1"/>
        <pt x="8" y="663" on="1"/>
      </contour>
    </TTGlyph>
    <TTGlyph name="uni0058" xMin="27" yMin="0" xMax="713" yMax="710">
      <contour>
        <pt x="43" y="663" on="1"/>
        <pt x="43" y="710" on="1"/>
        <pt x="313" y="710" on="1"/>
        <pt x="313" y="663" on="1"/>
        <pt x="296" y="663" on="1"/>
        <pt x="278" y="663" on="0"/>
        <pt x="240" y="661" on="0"/>
        <pt x="214" y="657" on="0"/>
        <pt x="214" y="653" on="1"/>
        <pt x="400" y="389" on="1"/>
        <pt x="406" y="386" on="1"/>
        <pt x="623" y="81" on="1"/>
        <pt x="640" y="58" on="0"/>
        <pt x="675" y="47" on="0"/>
        <pt x="703" y="47" on="1"/>
        <pt x="713" y="47" on="1"/>
        <pt x="713" y="0" on="1"/>
        <pt x="437" y="0" on="1"/>
        <pt x="437" y="47" on="1"/>
        <pt x="454" y="47" on="1"/>
        <pt x="472" y="47" on="0"/>
        <pt x="510" y="49" on="0"/>
        <pt x="536" y="54" on="0"/>
        <pt x="536" y="57" on="1"/>
        <pt x="338" y="335" on="1"/>
        <pt x="332" y="339" on="1"/>
        <pt x="127" y="631" on="1"/>
        <pt x="111" y="654" on="0"/>
        <pt x="76" y="663" on="0"/>
        <pt x="48" y="663" on="1"/>
      </contour>
      <contour>
        <pt x="406" y="354" on="1"/>
        <pt x="367" y="396" on="1"/>
        <pt x="543" y="645" on="1"/>
        <pt x="543" y="653" on="0"/>
        <pt x="489" y="663" on="0"/>
        <pt x="460" y="663" on="1"/>
        <pt x="445" y="663" on="1"/>
        <pt x="445" y="710" on="1"/>
        <pt x="689" y="710" on="1"/>
        <pt x="689" y="663" on="1"/>
        <pt x="684" y="663" on="1"/>
        <pt x="656" y="663" on="0"/>
        <pt x="615" y="645" on="0"/>
        <pt x="595" y="618" on="1"/>
      </contour>
      <contour>
        <pt x="27" y="0" on="1"/>
        <pt x="27" y="47" on="1"/>
        <pt x="37" y="47" on="1"/>
        <pt x="64" y="47" on="0"/>
        <pt x="103" y="65" on="0"/>
        <pt x="123" y="93" on="1"/>
        <pt x="331" y="382" on="1"/>
        <pt x="369" y="337" on="1"/>
        <pt x="175" y="65" on="1"/>
        <pt x="175" y="60" on="0"/>
        <pt x="202" y="51" on="0"/>
        <pt x="242" y="47" on="0"/>
        <pt x="260" y="47" on="1"/>
        <pt x="275" y="47" on="1"/>
        <pt x="275" y="0" on="1"/>
      </contour>
    </TTGlyph>
    <TTGlyph name="uni0059" xMin="12" yMin="0" xMax="671" yMax="710">
      <contour>
        <pt x="297" y="315" on="1"/>
        <pt x="311" y="270" on="1"/>
        <pt x="93" y="637" on="1"/>
        <pt x="81" y="657" on="0"/>
        <pt x="43" y="663" on="0"/>
        <pt x="17" y="663" on="1"/>
        <pt x="12" y="663" on="1"/>
        <pt x="12" y="710" on="1"/>
        <pt x="276" y="710" on="1"/>
        <pt x="276" y="663" on="1"/>
        <pt x="259" y="663" on="1"/>
        <pt x="241" y="663" on="0"/>
        <pt x="203" y="661" on="0"/>
        <pt x="176" y="657" on="0"/>
        <pt x="176" y="653" on="1"/>
        <pt x="371" y="320" on="1"/>
        <pt x="344" y="323" on="1"/>
        <pt x="526" y="645" on="1"/>
        <pt x="526" y="653" on="0"/>
        <pt x="472" y="663" on="0"/>
        <pt x="443" y="663" on="1"/>
        <pt x="428" y="663" on="1"/>
        <pt x="428" y="710" on="1"/>
        <pt x="671" y="710" on="1"/>
        <pt x="671" y="663" on="1"/>
        <pt x="666" y="663" on="1"/>
        <pt x="641" y="663" on="0"/>
        <pt x="597" y="650" on="0"/>
        <pt x="581" y="622" on="1"/>
        <pt x="378" y="268" on="1"/>
        <pt x="390" y="315" on="1"/>
        <pt x="390" y="83" on="1"/>
        <pt x="390" y="61" on="0"/>
        <pt x="438" y="47" on="0"/>
        <pt x="475" y="47" on="1"/>
        <pt x="491" y="47" on="1"/>
        <pt x="491" y="0" on="1"/>
        <pt x="196" y="0" on="1"/>
        <pt x="196" y="47" on="1"/>
        <pt x="212" y="47" on="1"/>
        <pt x="249" y="47" on="0"/>
        <pt x="297" y="61" on="0"/>
        <pt x="297" y="83" on="1"/>
      </contour>
    </TTGlyph>
    <TTGlyph name="uni005A" xMin="48" yMin="0" xMax="569" yMax="710">
      <contour>
        <pt x="98" y="59" on="1"/>
        <pt x="377" y="59" on="1"/>
        <pt x="420" y="59" on="0"/>
        <pt x="474" y="66" on="0"/>
        <pt x="501" y="84" on="0"/>
        <pt x="502" y="102" on="1"/>
        <pt x="511" y="212" on="1"/>
        <pt x="569" y="212" on="1"/>
        <pt x="569" y="0" on="1"/>
        <pt x="48" y="0" on="1"/>
        <pt x="48" y="67" on="1"/>
        <pt x="487" y="679" on="1"/>
        <pt x="506" y="651" on="1"/>
        <pt x="254" y="651" on="1"/>
        <pt x="211" y="651" on="0"/>
        <pt x="157" y="645" on="0"/>
        <pt x="131" y="626" on="0"/>
        <pt x="129" y="608" on="1"/>
        <pt x="120" y="513" on="1"/>
        <pt x="64" y="513" on="1"/>
        <pt x="64" y="710" on="1"/>
        <pt x="563" y="710" on="1"/>
        <pt x="563" y="646" on="1"/>
        <pt x="112" y="19" on="1"/>
      </contour>
    </TTGlyph>
    <TTGlyph name="uni005B" xMin="50" yMin="-130" xMax="294" yMax="750">
      <contour>
        <pt x="50" y="750" on="1"/>
        <pt x="130" y="750" on="1"/>
        <pt x="130" y="-130" on="1"/>
        <pt x="50" y="-130" on="1"/>
      </contour>
      <contour>
        <pt x="294" y="750" on="1"/>
        <pt x="294" y="700" on="1"/>
        <pt x="90" y="700" on="1"/>
        <pt x="90" y="750" on="1"/>
      </contour>
      <contour>
        <pt x="294" y="-80" on="1"/>
        <pt x="294" y="-130" on="1"/>
        <pt x="90" y="-130" on="1"/>
        <pt x="90" y="-80" on="1"/>
      </contour>
    </TTGlyph>
    <TTGlyph name="uni005D" xMin="20" yMin="-130" xMax="264" yMax="750">
      <component glyphName="uni005B" x="314" y="0" scalex="-1.0" scaley="1.0" flags="0x4"/>
    </TTGlyph>
    <TTGlyph name="uni0061" xMin="53" yMin="-10" xMax="529" yMax="518">
      <contour>
        <pt x="368" y="0" on="1"/>
        <pt x="368" y="107" on="1"/>
        <pt x="358" y="110" on="1"/>
        <pt x="358" y="350" on="1"/>
        <pt x="358" y="413" on="0"/>
        <pt x="306" y="461" on="0"/>
        <pt x="259" y="461" on="1"/>
        <pt x="210" y="461" on="0"/>
        <pt x="147" y="421" on="0"/>
        <pt x="128" y="394" on="1"/>
        <pt x="124" y="419" on="0"/>
        <pt x="152" y="449" on="0"/>
        <pt x="171" y="458" on="1"/>
        <pt x="171" y="355" on="1"/>
        <pt x="84" y="355" on="1"/>
        <pt x="84" y="458" on="1"/>
        <pt x="99" y="470" on="0"/>
        <pt x="150" y="498" on="0"/>
        <pt x="222" y="518" on="0"/>
        <pt x="265" y="518" on="1"/>
        <pt x="311" y="518" on="0"/>
        <pt x="394" y="488" on="0"/>
        <pt x="446" y="419" on="0"/>
        <pt x="446" y="359" on="1"/>
        <pt x="446" y="81" on="1"/>
        <pt x="446" y="59" on="0"/>
        <pt x="493" y="45" on="0"/>
        <pt x="529" y="45" on="1"/>
        <pt x="529" y="45" on="1"/>
        <pt x="529" y="0" on="1"/>
      </contour>
      <contour>
        <pt x="385" y="308" on="1"/>
        <pt x="385" y="258" on="1"/>
        <pt x="302" y="249" on="0"/>
        <pt x="196" y="217" on="0"/>
        <pt x="146" y="164" on="0"/>
        <pt x="146" y="125" on="1"/>
        <pt x="146" y="88" on="0"/>
        <pt x="194" y="45" on="0"/>
        <pt x="234" y="45" on="1"/>
        <pt x="269" y="45" on="0"/>
        <pt x="324" y="79" on="0"/>
        <pt x="367" y="141" on="0"/>
        <pt x="383" y="183" on="1"/>
        <pt x="383" y="112" on="1"/>
        <pt x="360" y="57" on="0"/>
        <pt x="272" y="-10" on="0"/>
        <pt x="210" y="-10" on="1"/>
        <pt x="167" y="-10" on="0"/>
        <pt x="96" y="22" on="0"/>
        <pt x="53" y="83" on="0"/>
        <pt x="53" y="124" on="1"/>
        <pt x="53" y="179" on="0"/>
        <pt x="128" y="251" on="0"/>
        <pt x="276" y="296" on="0"/>
      </contour>
    </TTGlyph>
    <TTGlyph name="uni0062" xMin="23" yMin="-10" xMax="599" yMax="735">
      <contour>
        <pt x="108" y="-3" on="1"/>
        <pt x="108" y="642" on="1"/>
        <pt x="108" y="664" on="0"/>
        <pt x="72" y="680" on="0"/>
        <pt x="34" y="687" on="1"/>
        <pt x="23" y="689" on="1"/>
        <pt x="23" y="735" on="1"/>
        <pt x="197" y="735" on="1"/>
        <pt x="197" y="121" on="1"/>
        <pt x="187" y="106" on="1"/>
        <pt x="168" y="-3" on="1"/>
      </contour>
      <contour>
        <pt x="360" y="-10" on="1"/>
        <pt x="301" y="-10" on="0"/>
        <pt x="218" y="42" on="0"/>
        <pt x="180" y="97" on="1"/>
        <pt x="180" y="184" on="1"/>
        <pt x="203" y="138" on="0"/>
        <pt x="257" y="77" on="0"/>
        <pt x="321" y="47" on="0"/>
        <pt x="358" y="47" on="1"/>
        <pt x="406" y="47" on="0"/>
        <pt x="472" y="100" on="0"/>
        <pt x="505" y="194" on="0"/>
        <pt x="505" y="257" on="1"/>
        <pt x="505" y="320" on="0"/>
        <pt x="472" y="411" on="0"/>
        <pt x="408" y="461" on="0"/>
        <pt x="362" y="461" on="1"/>
        <pt x="323" y="461" on="0"/>
        <pt x="257" y="428" on="0"/>
        <pt x="203" y="364" on="0"/>
        <pt x="180" y="316" on="1"/>
        <pt x="180" y="399" on="1"/>
        <pt x="207" y="439" on="0"/>
        <pt x="262" y="492" on="0"/>
        <pt x="326" y="518" on="0"/>
        <pt x="368" y="518" on="1"/>
        <pt x="437" y="518" on="0"/>
        <pt x="541" y="453" on="0"/>
        <pt x="599" y="336" on="0"/>
        <pt x="599" y="257" on="1"/>
        <pt x="599" y="178" on="0"/>
        <pt x="539" y="58" on="0"/>
        <pt x="432" y="-10" on="0"/>
      </contour>
    </TTGlyph>
    <TTGlyph name="uni0063" xMin="46" yMin="-10" xMax="526" yMax="518">
      <contour>
        <pt x="309" y="-10" on="1"/>
        <pt x="230" y="-10" on="0"/>
        <pt x="111" y="58" on="0"/>
        <pt x="46" y="177" on="0"/>
        <pt x="46" y="254" on="1"/>
        <pt x="46" y="333" on="0"/>
        <pt x="115" y="451" on="0"/>
        <pt x="238" y="518" on="0"/>
        <pt x="319" y="518" on="1"/>
        <pt x="369" y="518" on="0"/>
        <pt x="448" y="495" on="0"/>
        <pt x="503" y="465" on="0"/>
        <pt x="516" y="452" on="1"/>
        <pt x="516" y="328" on="1"/>
        <pt x="428" y="328" on="1"/>
        <pt x="428" y="441" on="1"/>
        <pt x="443" y="439" on="0"/>
        <pt x="465" y="424" on="0"/>
        <pt x="476" y="399" on="0"/>
        <pt x="473" y="382" on="1"/>
        <pt x="455" y="416" on="0"/>
        <pt x="369" y="461" on="0"/>
        <pt x="319" y="461" on="1"/>
        <pt x="260" y="461" on="0"/>
        <pt x="180" y="408" on="0"/>
        <pt x="140" y="314" on="0"/>
        <pt x="140" y="254" on="1"/>
        <pt x="140" y="193" on="0"/>
        <pt x="180" y="99" on="0"/>
        <pt x="257" y="47" on="0"/>
        <pt x="312" y="47" on="1"/>
        <pt x="357" y="47" on="0"/>
        <pt x="421" y="81" on="0"/>
        <pt x="466" y="131" on="0"/>
        <pt x="482" y="154" on="1"/>
        <pt x="526" y="112" on="1"/>
        <pt x="504" y="79" on="0"/>
        <pt x="445" y="23" on="0"/>
        <pt x="364" y="-10" on="0"/>
      </contour>
    </TTGlyph>
    <TTGlyph name="uni0064" xMin="46" yMin="-10" xMax="621" yMax="735">
      <contour>
        <pt x="537" y="735" on="1"/>
        <pt x="537" y="81" on="1"/>
        <pt x="537" y="59" on="0"/>
        <pt x="584" y="45" on="0"/>
        <pt x="620" y="45" on="1"/>
        <pt x="621" y="45" on="1"/>
        <pt x="621" y="0" on="1"/>
        <pt x="456" y="0" on="1"/>
        <pt x="456" y="112" on="1"/>
        <pt x="448" y="115" on="1"/>
        <pt x="448" y="642" on="1"/>
        <pt x="448" y="664" on="0"/>
        <pt x="411" y="680" on="0"/>
        <pt x="372" y="687" on="1"/>
        <pt x="361" y="689" on="1"/>
        <pt x="361" y="735" on="1"/>
      </contour>
      <contour>
        <pt x="280" y="-10" on="1"/>
        <pt x="210" y="-10" on="0"/>
        <pt x="105" y="55" on="0"/>
        <pt x="46" y="172" on="0"/>
        <pt x="46" y="250" on="1"/>
        <pt x="46" y="330" on="0"/>
        <pt x="106" y="450" on="0"/>
        <pt x="215" y="518" on="0"/>
        <pt x="286" y="518" on="1"/>
        <pt x="346" y="518" on="0"/>
        <pt x="428" y="468" on="0"/>
        <pt x="465" y="412" on="1"/>
        <pt x="465" y="322" on="1"/>
        <pt x="444" y="370" on="0"/>
        <pt x="391" y="432" on="0"/>
        <pt x="327" y="461" on="0"/>
        <pt x="289" y="461" on="1"/>
        <pt x="241" y="461" on="0"/>
        <pt x="174" y="409" on="0"/>
        <pt x="140" y="314" on="0"/>
        <pt x="140" y="250" on="1"/>
        <pt x="140" y="188" on="0"/>
        <pt x="174" y="97" on="0"/>
        <pt x="239" y="47" on="0"/>
        <pt x="286" y="47" on="1"/>
        <pt x="326" y="47" on="0"/>
        <pt x="390" y="80" on="0"/>
        <pt x="443" y="144" on="0"/>
        <pt x="465" y="191" on="1"/>
        <pt x="465" y="107" on="1"/>
        <pt x="426" y="48" on="0"/>
        <pt x="342" y="-10" on="0"/>
      </contour>
    </TTGlyph>
    <TTGlyph name="uni0065" xMin="46" yMin="-10" xMax="511" yMax="518">
      <contour>
        <pt x="304" y="-10" on="1"/>
        <pt x="231" y="-10" on="0"/>
        <pt x="114" y="54" on="0"/>
        <pt x="46" y="172" on="0"/>
        <pt x="46" y="252" on="1"/>
        <pt x="46" y="331" on="0"/>
        <pt x="110" y="450" on="0"/>
        <pt x="219" y="518" on="0"/>
        <pt x="286" y="518" on="1"/>
        <pt x="396" y="518" on="0"/>
        <pt x="510" y="375" on="0"/>
        <pt x="511" y="231" on="1"/>
        <pt x="119" y="231" on="1"/>
        <pt x="119" y="287" on="1"/>
        <pt x="444" y="287" on="1"/>
        <pt x="416" y="265" on="1"/>
        <pt x="415" y="332" on="0"/>
        <pt x="387" y="418" on="0"/>
        <pt x="330" y="461" on="0"/>
        <pt x="286" y="461" on="1"/>
        <pt x="244" y="461" on="0"/>
        <pt x="177" y="410" on="0"/>
        <pt x="137" y="315" on="0"/>
        <pt x="137" y="250" on="1"/>
        <pt x="137" y="186" on="0"/>
        <pt x="181" y="95" on="0"/>
        <pt x="258" y="47" on="0"/>
        <pt x="306" y="47" on="1"/>
        <pt x="347" y="47" on="0"/>
        <pt x="406" y="79" on="0"/>
        <pt x="447" y="126" on="0"/>
        <pt x="461" y="149" on="1"/>
        <pt x="508" y="107" on="1"/>
        <pt x="480" y="58" on="0"/>
        <pt x="381" y="-10" on="0"/>
      </contour>
    </TTGlyph>
    <TTGlyph name="uni0066" xMin="38" yMin="0" xMax="410" yMax="752">
      <contour>
        <pt x="38" y="508" on="1"/>
        <pt x="377" y="508" on="1"/>
        <pt x="377" y="451" on="1"/>
        <pt x="38" y="451" on="1"/>
      </contour>
      <contour>
        <pt x="410" y="742" on="1"/>
        <pt x="410" y="679" on="1"/>
        <pt x="394" y="685" on="0"/>
        <pt x="353" y="696" on="0"/>
        <pt x="330" y="696" on="1"/>
        <pt x="302" y="696" on="0"/>
        <pt x="257" y="676" on="0"/>
        <pt x="231" y="622" on="0"/>
        <pt x="231" y="571" on="1"/>
        <pt x="231" y="55" on="1"/>
        <pt x="231" y="50" on="0"/>
        <pt x="286" y="45" on="0"/>
        <pt x="326" y="45" on="1"/>
        <pt x="339" y="45" on="1"/>
        <pt x="339" y="0" on="1"/>
        <pt x="43" y="0" on="1"/>
        <pt x="43" y="45" on="1"/>
        <pt x="54" y="45" on="1"/>
        <pt x="95" y="45" on="0"/>
        <pt x="142" y="59" on="0"/>
        <pt x="142" y="81" on="1"/>
        <pt x="142" y="571" on="1"/>
        <pt x="142" y="641" on="0"/>
        <pt x="197" y="719" on="0"/>
        <pt x="284" y="752" on="0"/>
        <pt x="331" y="752" on="1"/>
        <pt x="353" y="752" on="0"/>
        <pt x="397" y="747" on="0"/>
      </contour>
    </TTGlyph>
    <TTGlyph name="uni0066.alt" xMin="38" yMin="0" xMax="471" yMax="752">
      <contour>
        <pt x="38" y="508" on="1"/>
        <pt x="377" y="508" on="1"/>
        <pt x="377" y="451" on="1"/>
        <pt x="38" y="451" on="1"/>
      </contour>
      <contour>
        <pt x="339" y="0" on="1"/>
        <pt x="43" y="0" on="1"/>
        <pt x="43" y="45" on="1"/>
        <pt x="54" y="45" on="1"/>
        <pt x="95" y="45" on="0"/>
        <pt x="142" y="59" on="0"/>
        <pt x="142" y="81" on="1"/>
        <pt x="142" y="570" on="1"/>
        <pt x="142" y="614" on="0"/>
        <pt x="171" y="682" on="0"/>
        <pt x="224" y="728" on="0"/>
        <pt x="295" y="752" on="0"/>
        <pt x="337" y="752" on="1"/>
        <pt x="388" y="752" on="0"/>
        <pt x="462" y="731" on="0"/>
        <pt x="471" y="724" on="1"/>
        <pt x="471" y="614" on="1"/>
        <pt x="390" y="614" on="1"/>
        <pt x="390" y="711" on="1"/>
        <pt x="406" y="712" on="0"/>
        <pt x="431" y="690" on="0"/>
        <pt x="442" y="662" on="0"/>
        <pt x="435" y="653" on="1"/>
        <pt x="421" y="673" on="0"/>
        <pt x="369" y="696" on="0"/>
        <pt x="334" y="696" on="1"/>
        <pt x="300" y="696" on="0"/>
        <pt x="254" y="670" on="0"/>
        <pt x="231" y="614" on="0"/>
        <pt x="231" y="570" on="1"/>
        <pt x="231" y="55" on="1"/>
        <pt x="231" y="50" on="0"/>
        <pt x="286" y="45" on="0"/>
        <pt x="326" y="45" on="1"/>
        <pt x="339" y="45" on="1"/>
      </contour>
    </TTGlyph>
    <TTGlyph name="uni0067" xMin="18" yMin="-236" xMax="563" yMax="536">
      <contour>
        <pt x="563" y="437" on="1"/>
        <pt x="497" y="442" on="0"/>
        <pt x="422" y="437" on="0"/>
        <pt x="403" y="412" on="1"/>
        <pt x="390" y="427" on="1"/>
        <pt x="418" y="484" on="0"/>
        <pt x="508" y="536" on="0"/>
        <pt x="563" y="529" on="1"/>
      </contour>
      <contour>
        <pt x="158" y="333" on="1"/>
        <pt x="158" y="293" on="0"/>
        <pt x="186" y="238" on="0"/>
        <pt x="237" y="209" on="0"/>
        <pt x="271" y="209" on="1"/>
        <pt x="306" y="209" on="0"/>
        <pt x="357" y="238" on="0"/>
        <pt x="385" y="293" on="0"/>
        <pt x="385" y="333" on="1"/>
        <pt x="385" y="373" on="0"/>
        <pt x="357" y="430" on="0"/>
        <pt x="306" y="460" on="0"/>
        <pt x="271" y="460" on="1"/>
        <pt x="237" y="460" on="0"/>
        <pt x="186" y="430" on="0"/>
        <pt x="158" y="373" on="0"/>
      </contour>
      <contour>
        <pt x="271" y="151" on="1"/>
        <pt x="213" y="151" on="0"/>
        <pt x="122" y="196" on="0"/>
        <pt x="70" y="278" on="0"/>
        <pt x="70" y="333" on="1"/>
        <pt x="70" y="388" on="0"/>
        <pt x="123" y="471" on="0"/>
        <pt x="214" y="518" on="0"/>
        <pt x="271" y="518" on="1"/>
        <pt x="329" y="518" on="0"/>
        <pt x="420" y="471" on="0"/>
        <pt x="473" y="388" on="0"/>
        <pt x="473" y="333" on="1"/>
        <pt x="473" y="278" on="0"/>
        <pt x="420" y="196" on="0"/>
        <pt x="329" y="151" on="0"/>
      </contour>
      <contour>
        <pt x="256" y="-236" on="1"/>
        <pt x="189" y="-236" on="0"/>
        <pt x="81" y="-211" on="0"/>
        <pt x="18" y="-153" on="0"/>
        <pt x="18" y="-105" on="1"/>
        <pt x="18" y="-69" on="0"/>
        <pt x="74" y="-15" on="0"/>
        <pt x="132" y="12" on="1"/>
        <pt x="169" y="-14" on="1"/>
        <pt x="131" y="-33" on="0"/>
        <pt x="97" y="-75" on="0"/>
        <pt x="97" y="-101" on="1"/>
        <pt x="97" y="-137" on="0"/>
        <pt x="175" y="-176" on="0"/>
        <pt x="257" y="-176" on="1"/>
        <pt x="292" y="-176" on="1"/>
        <pt x="343" y="-176" on="0"/>
        <pt x="422" y="-151" on="0"/>
        <pt x="467" y="-107" on="0"/>
        <pt x="467" y="-79" on="1"/>
        <pt x="467" y="-50" on="0"/>
        <pt x="424" y="-25" on="0"/>
        <pt x="365" y="-25" on="1"/>
        <pt x="141" y="-25" on="1"/>
        <pt x="137" y="-25" on="1"/>
        <pt x="88" y="0" on="0"/>
        <pt x="52" y="48" on="0"/>
        <pt x="52" y="76" on="1"/>
        <pt x="52" y="111" on="0"/>
        <pt x="106" y="173" on="0"/>
        <pt x="161" y="198" on="1"/>
        <pt x="199" y="171" on="1"/>
        <pt x="168" y="156" on="0"/>
        <pt x="134" y="121" on="0"/>
        <pt x="134" y="101" on="1"/>
        <pt x="134" y="80" on="0"/>
        <pt x="177" y="61" on="0"/>
        <pt x="217" y="61" on="1"/>
        <pt x="367" y="61" on="1"/>
        <pt x="456" y="61" on="0"/>
        <pt x="550" y="0" on="0"/>
        <pt x="550" y="-63" on="1"/>
        <pt x="550" y="-122" on="0"/>
        <pt x="479" y="-199" on="0"/>
        <pt x="362" y="-236" on="0"/>
        <pt x="293" y="-236" on="1"/>
      </contour>
    </TTGlyph>
    <TTGlyph name="uni0067.alt" xMin="46" yMin="-222" xMax="537" yMax="518">
      <contour>
        <pt x="448" y="42" on="1"/>
        <pt x="448" y="398" on="1"/>
        <pt x="457" y="410" on="1"/>
        <pt x="475" y="511" on="1"/>
        <pt x="537" y="511" on="1"/>
        <pt x="537" y="43" on="1"/>
        <pt x="537" y="-42" on="0"/>
        <pt x="474" y="-161" on="0"/>
        <pt x="357" y="-222" on="0"/>
        <pt x="277" y="-222" on="1"/>
        <pt x="227" y="-222" on="0"/>
        <pt x="138" y="-199" on="0"/>
        <pt x="73" y="-161" on="0"/>
        <pt x="57" y="-139" on="1"/>
        <pt x="57" y="-49" on="1"/>
        <pt x="150" y="-49" on="1"/>
        <pt x="150" y="-171" on="1"/>
        <pt x="136" y="-170" on="0"/>
        <pt x="115" y="-148" on="0"/>
        <pt x="107" y="-111" on="0"/>
        <pt x="112" y="-88" on="1"/>
        <pt x="133" y="-122" on="0"/>
        <pt x="214" y="-165" on="0"/>
        <pt x="277" y="-165" on="1"/>
        <pt x="353" y="-165" on="0"/>
        <pt x="448" y="-67" on="0"/>
      </contour>
      <contour>
        <pt x="140" y="250" on="1"/>
        <pt x="140" y="189" on="0"/>
        <pt x="174" y="97" on="0"/>
        <pt x="240" y="46" on="0"/>
        <pt x="286" y="46" on="1"/>
        <pt x="347" y="46" on="0"/>
        <pt x="436" y="125" on="0"/>
        <pt x="469" y="199" on="1"/>
        <pt x="508" y="177" on="1"/>
        <pt x="473" y="113" on="0"/>
        <pt x="408" y="30" on="0"/>
        <pt x="333" y="-11" on="0"/>
        <pt x="280" y="-11" on="1"/>
        <pt x="210" y="-11" on="0"/>
        <pt x="105" y="55" on="0"/>
        <pt x="46" y="172" on="0"/>
        <pt x="46" y="250" on="1"/>
        <pt x="46" y="330" on="0"/>
        <pt x="106" y="450" on="0"/>
        <pt x="215" y="518" on="0"/>
        <pt x="286" y="518" on="1"/>
        <pt x="338" y="518" on="0"/>
        <pt x="414" y="480" on="0"/>
        <pt x="477" y="400" on="0"/>
        <pt x="509" y="335" on="1"/>
        <pt x="470" y="313" on="1"/>
        <pt x="437" y="389" on="0"/>
        <pt x="348" y="461" on="0"/>
        <pt x="289" y="461" on="1"/>
        <pt x="241" y="461" on="0"/>
        <pt x="175" y="409" on="0"/>
        <pt x="140" y="314" on="0"/>
      </contour>
    </TTGlyph>
    <TTGlyph name="uni0068" xMin="38" yMin="0" xMax="623" yMax="735">
      <contour>
        <pt x="539" y="81" on="1"/>
        <pt x="539" y="357" on="1"/>
        <pt x="539" y="440" on="0"/>
        <pt x="451" y="518" on="0"/>
        <pt x="379" y="518" on="1"/>
        <pt x="321" y="518" on="0"/>
        <pt x="236" y="464" on="0"/>
        <pt x="195" y="409" on="1"/>
        <pt x="195" y="341" on="1"/>
        <pt x="230" y="397" on="0"/>
        <pt x="314" y="455" on="0"/>
        <pt x="365" y="455" on="1"/>
        <pt x="413" y="455" on="0"/>
        <pt x="450" y="402" on="0"/>
        <pt x="450" y="346" on="1"/>
        <pt x="450" y="55" on="1"/>
        <pt x="450" y="52" on="0"/>
        <pt x="425" y="47" on="0"/>
        <pt x="391" y="45" on="0"/>
        <pt x="377" y="45" on="1"/>
        <pt x="375" y="45" on="1"/>
        <pt x="375" y="0" on="1"/>
        <pt x="623" y="0" on="1"/>
        <pt x="623" y="45" on="1"/>
        <pt x="621" y="45" on="1"/>
        <pt x="586" y="45" on="0"/>
        <pt x="539" y="59" on="0"/>
      </contour>
      <contour>
        <pt x="38" y="0" on="1"/>
        <pt x="287" y="0" on="1"/>
        <pt x="287" y="45" on="1"/>
        <pt x="284" y="45" on="1"/>
        <pt x="270" y="45" on="0"/>
        <pt x="236" y="47" on="0"/>
        <pt x="212" y="52" on="0"/>
        <pt x="212" y="55" on="1"/>
        <pt x="212" y="735" on="1"/>
        <pt x="38" y="735" on="1"/>
        <pt x="38" y="689" on="1"/>
        <pt x="49" y="687" on="1"/>
        <pt x="87" y="680" on="0"/>
        <pt x="123" y="664" on="0"/>
        <pt x="123" y="642" on="1"/>
        <pt x="123" y="81" on="1"/>
        <pt x="123" y="59" on="0"/>
        <pt x="76" y="45" on="0"/>
        <pt x="40" y="45" on="1"/>
        <pt x="38" y="45" on="1"/>
      </contour>
    </TTGlyph>
    <TTGlyph name="uni0069" xMin="38" yMin="0" xMax="296" yMax="740">
      <contour>
        <pt x="163" y="619" on="1"/>
        <pt x="137" y="619" on="0"/>
        <pt x="102" y="652" on="0"/>
        <pt x="102" y="680" on="1"/>
        <pt x="102" y="708" on="0"/>
        <pt x="137" y="740" on="0"/>
        <pt x="163" y="740" on="1"/>
        <pt x="189" y="740" on="0"/>
        <pt x="224" y="708" on="0"/>
        <pt x="224" y="680" on="1"/>
        <pt x="224" y="652" on="0"/>
        <pt x="189" y="619" on="0"/>
      </contour>
      <contour>
        <pt x="212" y="508" on="1"/>
        <pt x="212" y="81" on="1"/>
        <pt x="212" y="59" on="0"/>
        <pt x="259" y="45" on="0"/>
        <pt x="295" y="45" on="1"/>
        <pt x="296" y="45" on="1"/>
        <pt x="296" y="0" on="1"/>
        <pt x="39" y="0" on="1"/>
        <pt x="39" y="45" on="1"/>
        <pt x="40" y="45" on="1"/>
        <pt x="76" y="45" on="0"/>
        <pt x="123" y="59" on="0"/>
        <pt x="123" y="81" on="1"/>
        <pt x="123" y="415" on="1"/>
        <pt x="123" y="437" on="0"/>
        <pt x="87" y="453" on="0"/>
        <pt x="49" y="460" on="1"/>
        <pt x="38" y="462" on="1"/>
        <pt x="38" y="508" on="1"/>
      </contour>
    </TTGlyph>
    <TTGlyph name="uni006A" xMin="-62" yMin="-236" xMax="216" yMax="740">
      <contour>
        <pt x="115" y="-45" on="1"/>
        <pt x="115" y="415" on="1"/>
        <pt x="115" y="437" on="0"/>
        <pt x="75" y="455" on="0"/>
        <pt x="34" y="460" on="1"/>
        <pt x="18" y="462" on="1"/>
        <pt x="18" y="508" on="1"/>
        <pt x="204" y="508" on="1"/>
        <pt x="204" y="-45" on="1"/>
        <pt x="204" y="-101" on="0"/>
        <pt x="172" y="-175" on="0"/>
        <pt x="119" y="-218" on="0"/>
        <pt x="52" y="-236" on="0"/>
        <pt x="17" y="-236" on="1"/>
        <pt x="-5" y="-236" on="0"/>
        <pt x="-48" y="-230" on="0"/>
        <pt x="-62" y="-224" on="1"/>
        <pt x="-62" y="-161" on="1"/>
        <pt x="-45" y="-167" on="0"/>
        <pt x="-8" y="-174" on="0"/>
        <pt x="14" y="-174" on="1"/>
        <pt x="60" y="-174" on="0"/>
        <pt x="115" y="-119" on="0"/>
      </contour>
      <contour>
        <pt x="155" y="619" on="1"/>
        <pt x="129" y="619" on="0"/>
        <pt x="94" y="652" on="0"/>
        <pt x="94" y="680" on="1"/>
        <pt x="94" y="708" on="0"/>
        <pt x="129" y="740" on="0"/>
        <pt x="155" y="740" on="1"/>
        <pt x="181" y="740" on="0"/>
        <pt x="216" y="708" on="0"/>
        <pt x="216" y="680" on="1"/>
        <pt x="216" y="652" on="0"/>
        <pt x="181" y="619" on="0"/>
      </contour>
    </TTGlyph>
    <TTGlyph name="uni006B" xMin="38" yMin="0" xMax="611" yMax="735">
      <contour>
        <pt x="39" y="0" on="1"/>
        <pt x="39" y="45" on="1"/>
        <pt x="41" y="45" on="1"/>
        <pt x="77" y="45" on="0"/>
        <pt x="123" y="59" on="0"/>
        <pt x="123" y="81" on="1"/>
        <pt x="123" y="642" on="1"/>
        <pt x="123" y="664" on="0"/>
        <pt x="87" y="680" on="0"/>
        <pt x="49" y="687" on="1"/>
        <pt x="38" y="689" on="1"/>
        <pt x="38" y="735" on="1"/>
        <pt x="212" y="735" on="1"/>
        <pt x="212" y="55" on="1"/>
        <pt x="212" y="52" on="0"/>
        <pt x="237" y="47" on="0"/>
        <pt x="271" y="45" on="0"/>
        <pt x="284" y="45" on="1"/>
        <pt x="287" y="45" on="1"/>
        <pt x="287" y="0" on="1"/>
      </contour>
      <contour>
        <pt x="611" y="0" on="1"/>
        <pt x="352" y="0" on="1"/>
        <pt x="352" y="45" on="1"/>
        <pt x="355" y="45" on="1"/>
        <pt x="369" y="45" on="0"/>
        <pt x="403" y="47" on="0"/>
        <pt x="427" y="52" on="0"/>
        <pt x="427" y="55" on="1"/>
        <pt x="238" y="268" on="1"/>
        <pt x="238" y="273" on="1"/>
        <pt x="418" y="445" on="1"/>
        <pt x="418" y="453" on="0"/>
        <pt x="390" y="460" on="0"/>
        <pt x="352" y="463" on="0"/>
        <pt x="337" y="463" on="1"/>
        <pt x="333" y="463" on="1"/>
        <pt x="333" y="508" on="1"/>
        <pt x="581" y="508" on="1"/>
        <pt x="581" y="463" on="1"/>
        <pt x="579" y="463" on="1"/>
        <pt x="548" y="463" on="0"/>
        <pt x="491" y="440" on="0"/>
        <pt x="464" y="414" on="1"/>
        <pt x="309" y="265" on="1"/>
        <pt x="311" y="308" on="1"/>
        <pt x="512" y="83" on="1"/>
        <pt x="534" y="59" on="0"/>
        <pt x="581" y="45" on="0"/>
        <pt x="609" y="45" on="1"/>
        <pt x="611" y="45" on="1"/>
      </contour>
    </TTGlyph>
    <TTGlyph name="uni006C" xMin="33" yMin="0" xMax="291" yMax="735">
      <contour>
        <pt x="207" y="81" on="1"/>
        <pt x="207" y="735" on="1"/>
        <pt x="33" y="735" on="1"/>
        <pt x="33" y="689" on="1"/>
        <pt x="44" y="687" on="1"/>
        <pt x="82" y="680" on="0"/>
        <pt x="118" y="664" on="0"/>
        <pt x="118" y="642" on="1"/>
        <pt x="118" y="81" on="1"/>
        <pt x="118" y="59" on="0"/>
        <pt x="72" y="45" on="0"/>
        <pt x="36" y="45" on="1"/>
        <pt x="34" y="45" on="1"/>
        <pt x="34" y="0" on="1"/>
        <pt x="291" y="0" on="1"/>
        <pt x="291" y="45" on="1"/>
        <pt x="289" y="45" on="1"/>
        <pt x="253" y="45" on="0"/>
        <pt x="207" y="59" on="0"/>
      </contour>
    </TTGlyph>
    <TTGlyph name="uni006D" xMin="38" yMin="0" xMax="889" yMax="518">
      <contour>
        <pt x="38" y="0" on="1"/>
        <pt x="38" y="45" on="1"/>
        <pt x="40" y="45" on="1"/>
        <pt x="76" y="45" on="0"/>
        <pt x="122" y="59" on="0"/>
        <pt x="122" y="81" on="1"/>
        <pt x="122" y="415" on="1"/>
        <pt x="122" y="437" on="0"/>
        <pt x="86" y="453" on="0"/>
        <pt x="48" y="460" on="1"/>
        <pt x="38" y="462" on="1"/>
        <pt x="38" y="508" on="1"/>
        <pt x="201" y="508" on="1"/>
        <pt x="201" y="404" on="1"/>
        <pt x="211" y="392" on="1"/>
        <pt x="211" y="55" on="1"/>
        <pt x="211" y="52" on="0"/>
        <pt x="234" y="47" on="0"/>
        <pt x="266" y="45" on="0"/>
        <pt x="279" y="45" on="1"/>
        <pt x="281" y="45" on="1"/>
        <pt x="281" y="0" on="1"/>
      </contour>
      <contour>
        <pt x="578" y="0" on="1"/>
        <pt x="347" y="0" on="1"/>
        <pt x="347" y="45" on="1"/>
        <pt x="349" y="45" on="1"/>
        <pt x="363" y="45" on="0"/>
        <pt x="395" y="47" on="0"/>
        <pt x="418" y="52" on="0"/>
        <pt x="418" y="55" on="1"/>
        <pt x="418" y="345" on="1"/>
        <pt x="418" y="402" on="0"/>
        <pt x="388" y="455" on="0"/>
        <pt x="348" y="455" on="1"/>
        <pt x="302" y="455" on="0"/>
        <pt x="228" y="396" on="0"/>
        <pt x="194" y="341" on="1"/>
        <pt x="194" y="411" on="1"/>
        <pt x="232" y="464" on="0"/>
        <pt x="308" y="518" on="0"/>
        <pt x="363" y="518" on="1"/>
        <pt x="428" y="518" on="0"/>
        <pt x="507" y="440" on="0"/>
        <pt x="507" y="357" on="1"/>
        <pt x="507" y="55" on="1"/>
        <pt x="507" y="52" on="0"/>
        <pt x="530" y="47" on="0"/>
        <pt x="563" y="45" on="0"/>
        <pt x="577" y="45" on="1"/>
        <pt x="578" y="45" on="1"/>
      </contour>
      <contour>
        <pt x="889" y="0" on="1"/>
        <pt x="644" y="0" on="1"/>
        <pt x="644" y="45" on="1"/>
        <pt x="647" y="45" on="1"/>
        <pt x="661" y="45" on="0"/>
        <pt x="692" y="48" on="0"/>
        <pt x="714" y="52" on="0"/>
        <pt x="714" y="55" on="1"/>
        <pt x="714" y="345" on="1"/>
        <pt x="714" y="402" on="0"/>
        <pt x="684" y="455" on="0"/>
        <pt x="644" y="455" on="1"/>
        <pt x="598" y="455" on="0"/>
        <pt x="524" y="396" on="0"/>
        <pt x="490" y="341" on="1"/>
        <pt x="490" y="411" on="1"/>
        <pt x="528" y="464" on="0"/>
        <pt x="604" y="518" on="0"/>
        <pt x="659" y="518" on="1"/>
        <pt x="723" y="518" on="0"/>
        <pt x="803" y="440" on="0"/>
        <pt x="803" y="357" on="1"/>
        <pt x="803" y="81" on="1"/>
        <pt x="803" y="59" on="0"/>
        <pt x="850" y="45" on="0"/>
        <pt x="886" y="45" on="1"/>
        <pt x="889" y="45" on="1"/>
      </contour>
    </TTGlyph>
    <TTGlyph name="uni006E" xMin="38" yMin="0" xMax="622" yMax="518">
      <contour>
        <pt x="38" y="0" on="1"/>
        <pt x="286" y="0" on="1"/>
        <pt x="286" y="45" on="1"/>
        <pt x="283" y="45" on="1"/>
        <pt x="269" y="45" on="0"/>
        <pt x="235" y="47" on="0"/>
        <pt x="211" y="52" on="0"/>
        <pt x="211" y="55" on="1"/>
        <pt x="211" y="391" on="1"/>
        <pt x="202" y="402" on="1"/>
        <pt x="202" y="508" on="1"/>
        <pt x="38" y="508" on="1"/>
        <pt x="38" y="462" on="1"/>
        <pt x="48" y="460" on="1"/>
        <pt x="86" y="453" on="0"/>
        <pt x="122" y="437" on="0"/>
        <pt x="122" y="415" on="1"/>
        <pt x="122" y="81" on="1"/>
        <pt x="122" y="59" on="0"/>
        <pt x="76" y="45" on="0"/>
        <pt x="40" y="45" on="1"/>
        <pt x="38" y="45" on="1"/>
      </contour>
      <contour>
        <pt x="538" y="81" on="1"/>
        <pt x="538" y="357" on="1"/>
        <pt x="538" y="440" on="0"/>
        <pt x="450" y="518" on="0"/>
        <pt x="379" y="518" on="1"/>
        <pt x="320" y="518" on="0"/>
        <pt x="235" y="464" on="0"/>
        <pt x="194" y="408" on="1"/>
        <pt x="194" y="340" on="1"/>
        <pt x="229" y="396" on="0"/>
        <pt x="314" y="455" on="0"/>
        <pt x="364" y="455" on="1"/>
        <pt x="412" y="455" on="0"/>
        <pt x="449" y="402" on="0"/>
        <pt x="449" y="346" on="1"/>
        <pt x="449" y="55" on="1"/>
        <pt x="449" y="52" on="0"/>
        <pt x="424" y="47" on="0"/>
        <pt x="390" y="45" on="0"/>
        <pt x="376" y="45" on="1"/>
        <pt x="374" y="45" on="1"/>
        <pt x="374" y="0" on="1"/>
        <pt x="622" y="0" on="1"/>
        <pt x="622" y="45" on="1"/>
        <pt x="620" y="45" on="1"/>
        <pt x="584" y="45" on="0"/>
        <pt x="538" y="59" on="0"/>
      </contour>
    </TTGlyph>
    <TTGlyph name="uni006F" xMin="46" yMin="-10" xMax="568" yMax="518">
      <contour>
        <pt x="307" y="-10" on="1"/>
        <pt x="231" y="-10" on="0"/>
        <pt x="113" y="57" on="0"/>
        <pt x="46" y="176" on="0"/>
        <pt x="46" y="254" on="1"/>
        <pt x="46" y="332" on="0"/>
        <pt x="113" y="451" on="0"/>
        <pt x="231" y="518" on="0"/>
        <pt x="307" y="518" on="1"/>
        <pt x="383" y="518" on="0"/>
        <pt x="501" y="451" on="0"/>
        <pt x="568" y="332" on="0"/>
        <pt x="568" y="254" on="1"/>
        <pt x="568" y="176" on="0"/>
        <pt x="501" y="57" on="0"/>
        <pt x="383" y="-10" on="0"/>
      </contour>
      <contour>
        <pt x="307" y="47" on="1"/>
        <pt x="359" y="47" on="0"/>
        <pt x="433" y="98" on="0"/>
        <pt x="474" y="191" on="0"/>
        <pt x="474" y="254" on="1"/>
        <pt x="474" y="316" on="0"/>
        <pt x="433" y="409" on="0"/>
        <pt x="359" y="461" on="0"/>
        <pt x="307" y="461" on="1"/>
        <pt x="256" y="461" on="0"/>
        <pt x="181" y="409" on="0"/>
        <pt x="140" y="316" on="0"/>
        <pt x="140" y="254" on="1"/>
        <pt x="140" y="192" on="0"/>
        <pt x="181" y="98" on="0"/>
        <pt x="256" y="47" on="0"/>
      </contour>
    </TTGlyph>
    <TTGlyph name="uni0070" xMin="33" yMin="-223" xMax="608" yMax="518">
      <contour>
        <pt x="33" y="-223" on="1"/>
        <pt x="33" y="-178" on="1"/>
        <pt x="35" y="-178" on="1"/>
        <pt x="71" y="-178" on="0"/>
        <pt x="117" y="-164" on="0"/>
        <pt x="117" y="-142" on="1"/>
        <pt x="117" y="415" on="1"/>
        <pt x="117" y="437" on="0"/>
        <pt x="81" y="453" on="0"/>
        <pt x="43" y="460" on="1"/>
        <pt x="33" y="462" on="1"/>
        <pt x="33" y="508" on="1"/>
        <pt x="197" y="508" on="1"/>
        <pt x="197" y="382" on="1"/>
        <pt x="206" y="370" on="1"/>
        <pt x="206" y="-168" on="1"/>
        <pt x="206" y="-171" on="0"/>
        <pt x="232" y="-176" on="0"/>
        <pt x="266" y="-178" on="0"/>
        <pt x="279" y="-178" on="1"/>
        <pt x="308" y="-178" on="1"/>
        <pt x="308" y="-223" on="1"/>
      </contour>
      <contour>
        <pt x="369" y="-10" on="1"/>
        <pt x="309" y="-10" on="0"/>
        <pt x="227" y="42" on="0"/>
        <pt x="189" y="97" on="1"/>
        <pt x="189" y="185" on="1"/>
        <pt x="223" y="116" on="0"/>
        <pt x="310" y="47" on="0"/>
        <pt x="366" y="47" on="1"/>
        <pt x="415" y="47" on="0"/>
        <pt x="480" y="100" on="0"/>
        <pt x="514" y="194" on="0"/>
        <pt x="514" y="257" on="1"/>
        <pt x="514" y="320" on="0"/>
        <pt x="481" y="411" on="0"/>
        <pt x="417" y="461" on="0"/>
        <pt x="370" y="461" on="1"/>
        <pt x="312" y="461" on="0"/>
        <pt x="223" y="387" on="0"/>
        <pt x="189" y="316" on="1"/>
        <pt x="189" y="401" on="1"/>
        <pt x="229" y="460" on="0"/>
        <pt x="315" y="518" on="0"/>
        <pt x="376" y="518" on="1"/>
        <pt x="446" y="518" on="0"/>
        <pt x="550" y="453" on="0"/>
        <pt x="608" y="336" on="0"/>
        <pt x="608" y="257" on="1"/>
        <pt x="608" y="178" on="0"/>
        <pt x="549" y="58" on="0"/>
        <pt x="441" y="-10" on="0"/>
      </contour>
    </TTGlyph>
    <TTGlyph name="uni0071" xMin="46" yMin="-223" xMax="621" yMax="518">
      <contour>
        <pt x="346" y="-223" on="1"/>
        <pt x="346" y="-178" on="1"/>
        <pt x="375" y="-178" on="1"/>
        <pt x="388" y="-178" on="0"/>
        <pt x="422" y="-176" on="0"/>
        <pt x="448" y="-171" on="0"/>
        <pt x="448" y="-168" on="1"/>
        <pt x="448" y="385" on="1"/>
        <pt x="456" y="403" on="1"/>
        <pt x="475" y="511" on="1"/>
        <pt x="537" y="511" on="1"/>
        <pt x="537" y="-142" on="1"/>
        <pt x="537" y="-164" on="0"/>
        <pt x="583" y="-178" on="0"/>
        <pt x="619" y="-178" on="1"/>
        <pt x="621" y="-178" on="1"/>
        <pt x="621" y="-223" on="1"/>
      </contour>
      <contour>
        <pt x="280" y="-10" on="1"/>
        <pt x="210" y="-10" on="0"/>
        <pt x="105" y="55" on="0"/>
        <pt x="46" y="172" on="0"/>
        <pt x="46" y="250" on="1"/>
        <pt x="46" y="330" on="0"/>
        <pt x="106" y="450" on="0"/>
        <pt x="215" y="518" on="0"/>
        <pt x="286" y="518" on="1"/>
        <pt x="346" y="518" on="0"/>
        <pt x="429" y="468" on="0"/>
        <pt x="465" y="413" on="1"/>
        <pt x="465" y="324" on="1"/>
        <pt x="444" y="371" on="0"/>
        <pt x="391" y="431" on="0"/>
        <pt x="327" y="461" on="0"/>
        <pt x="289" y="461" on="1"/>
        <pt x="241" y="461" on="0"/>
        <pt x="175" y="409" on="0"/>
        <pt x="140" y="314" on="0"/>
        <pt x="140" y="250" on="1"/>
        <pt x="140" y="189" on="0"/>
        <pt x="174" y="97" on="0"/>
        <pt x="240" y="47" on="0"/>
        <pt x="286" y="47" on="1"/>
        <pt x="326" y="47" on="0"/>
        <pt x="390" y="80" on="0"/>
        <pt x="443" y="145" on="0"/>
        <pt x="465" y="191" on="1"/>
        <pt x="465" y="106" on="1"/>
        <pt x="426" y="47" on="0"/>
        <pt x="342" y="-10" on="0"/>
      </contour>
    </TTGlyph>
    <TTGlyph name="uni0072" xMin="38" yMin="0" xMax="388" yMax="518">
      <contour>
        <pt x="38" y="0" on="1"/>
        <pt x="38" y="45" on="1"/>
        <pt x="40" y="45" on="1"/>
        <pt x="76" y="45" on="0"/>
        <pt x="122" y="59" on="0"/>
        <pt x="122" y="81" on="1"/>
        <pt x="122" y="415" on="1"/>
        <pt x="122" y="437" on="0"/>
        <pt x="86" y="453" on="0"/>
        <pt x="48" y="460" on="1"/>
        <pt x="38" y="462" on="1"/>
        <pt x="38" y="508" on="1"/>
        <pt x="202" y="508" on="1"/>
        <pt x="202" y="361" on="1"/>
        <pt x="211" y="370" on="1"/>
        <pt x="211" y="80" on="1"/>
        <pt x="211" y="64" on="0"/>
        <pt x="240" y="49" on="0"/>
        <pt x="279" y="45" on="0"/>
        <pt x="293" y="45" on="1"/>
        <pt x="310" y="45" on="1"/>
        <pt x="310" y="0" on="1"/>
      </contour>
      <contour>
        <pt x="388" y="515" on="1"/>
        <pt x="388" y="426" on="1"/>
        <pt x="377" y="430" on="0"/>
        <pt x="347" y="434" on="0"/>
        <pt x="333" y="434" on="1"/>
        <pt x="297" y="434" on="0"/>
        <pt x="249" y="408" on="0"/>
        <pt x="214" y="354" on="0"/>
        <pt x="194" y="311" on="1"/>
        <pt x="194" y="377" on="1"/>
        <pt x="209" y="419" on="0"/>
        <pt x="254" y="482" on="0"/>
        <pt x="315" y="518" on="0"/>
        <pt x="354" y="518" on="1"/>
        <pt x="364" y="518" on="0"/>
        <pt x="383" y="517" on="0"/>
      </contour>
    </TTGlyph>
    <TTGlyph name="uni0073" xMin="33" yMin="-10" xMax="442" yMax="518">
      <contour>
        <pt x="358" y="132" on="1"/>
        <pt x="358" y="161" on="0"/>
        <pt x="321" y="192" on="0"/>
        <pt x="261" y="211" on="0"/>
        <pt x="226" y="219" on="1"/>
        <pt x="195" y="227" on="0"/>
        <pt x="134" y="247" on="0"/>
        <pt x="84" y="280" on="0"/>
        <pt x="54" y="331" on="0"/>
        <pt x="54" y="370" on="1"/>
        <pt x="54" y="414" on="0"/>
        <pt x="98" y="481" on="0"/>
        <pt x="181" y="518" on="0"/>
        <pt x="240" y="518" on="1"/>
        <pt x="286" y="518" on="0"/>
        <pt x="355" y="504" on="0"/>
        <pt x="401" y="483" on="0"/>
        <pt x="412" y="474" on="1"/>
        <pt x="412" y="365" on="1"/>
        <pt x="326" y="365" on="1"/>
        <pt x="326" y="459" on="1"/>
        <pt x="340" y="460" on="0"/>
        <pt x="358" y="447" on="0"/>
        <pt x="363" y="425" on="0"/>
        <pt x="359" y="410" on="1"/>
        <pt x="343" y="436" on="0"/>
        <pt x="280" y="461" on="0"/>
        <pt x="240" y="461" on="1"/>
        <pt x="188" y="461" on="0"/>
        <pt x="136" y="416" on="0"/>
        <pt x="136" y="381" on="1"/>
        <pt x="136" y="351" on="0"/>
        <pt x="175" y="318" on="0"/>
        <pt x="239" y="298" on="0"/>
        <pt x="274" y="289" on="1"/>
        <pt x="304" y="282" on="0"/>
        <pt x="364" y="262" on="0"/>
        <pt x="413" y="230" on="0"/>
        <pt x="442" y="180" on="0"/>
        <pt x="442" y="142" on="1"/>
        <pt x="442" y="99" on="0"/>
        <pt x="394" y="30" on="0"/>
        <pt x="305" y="-10" on="0"/>
        <pt x="242" y="-10" on="1"/>
        <pt x="194" y="-10" on="0"/>
        <pt x="117" y="5" on="0"/>
        <pt x="57" y="30" on="0"/>
        <pt x="33" y="45" on="1"/>
        <pt x="33" y="160" on="1"/>
        <pt x="121" y="160" on="1"/>
        <pt x="121" y="33" on="1"/>
        <pt x="101" y="45" on="0"/>
        <pt x="85" y="69" on="0"/>
        <pt x="85" y="94" on="0"/>
        <pt x="89" y="107" on="1"/>
        <pt x="115" y="76" on="0"/>
        <pt x="192" y="47" on="0"/>
        <pt x="241" y="47" on="1"/>
        <pt x="295" y="47" on="0"/>
        <pt x="358" y="91" on="0"/>
      </contour>
    </TTGlyph>
    <TTGlyph name="uni0074" xMin="8" yMin="-10" xMax="353" yMax="648">
      <contour>
        <pt x="190" y="174" on="1"/>
        <pt x="190" y="648" on="1"/>
        <pt x="108" y="648" on="1"/>
        <pt x="108" y="500" on="1"/>
        <pt x="101" y="492" on="1"/>
        <pt x="101" y="173" on="1"/>
        <pt x="101" y="102" on="0"/>
        <pt x="151" y="22" on="0"/>
        <pt x="231" y="-10" on="0"/>
        <pt x="275" y="-10" on="1"/>
        <pt x="298" y="-10" on="0"/>
        <pt x="340" y="-1" on="0"/>
        <pt x="353" y="5" on="1"/>
        <pt x="353" y="62" on="1"/>
        <pt x="340" y="58" on="0"/>
        <pt x="304" y="50" on="0"/>
        <pt x="283" y="50" on="1"/>
        <pt x="241" y="50" on="0"/>
        <pt x="190" y="107" on="0"/>
      </contour>
      <contour>
        <pt x="8" y="451" on="1"/>
        <pt x="137" y="451" on="1"/>
        <pt x="108" y="553" on="1"/>
        <pt x="108" y="522" on="0"/>
        <pt x="58" y="503" on="0"/>
        <pt x="13" y="503" on="1"/>
        <pt x="8" y="503" on="1"/>
      </contour>
      <contour>
        <pt x="173" y="508" on="1"/>
        <pt x="173" y="451" on="1"/>
        <pt x="341" y="451" on="1"/>
        <pt x="341" y="508" on="1"/>
      </contour>
    </TTGlyph>
    <TTGlyph name="uni0075" xMin="20" yMin="-10" xMax="604" yMax="508">
      <contour>
        <pt x="518" y="508" on="1"/>
        <pt x="518" y="81" on="1"/>
        <pt x="518" y="59" on="0"/>
        <pt x="565" y="45" on="0"/>
        <pt x="601" y="45" on="1"/>
        <pt x="604" y="45" on="1"/>
        <pt x="604" y="0" on="1"/>
        <pt x="438" y="0" on="1"/>
        <pt x="438" y="104" on="1"/>
        <pt x="429" y="117" on="1"/>
        <pt x="429" y="415" on="1"/>
        <pt x="429" y="437" on="0"/>
        <pt x="392" y="454" on="0"/>
        <pt x="353" y="459" on="1"/>
        <pt x="331" y="462" on="1"/>
        <pt x="331" y="508" on="1"/>
      </contour>
      <contour>
        <pt x="195" y="163" on="1"/>
        <pt x="195" y="106" on="0"/>
        <pt x="232" y="53" on="0"/>
        <pt x="280" y="53" on="1"/>
        <pt x="329" y="53" on="0"/>
        <pt x="412" y="111" on="0"/>
        <pt x="446" y="166" on="1"/>
        <pt x="446" y="97" on="1"/>
        <pt x="407" y="43" on="0"/>
        <pt x="323" y="-10" on="0"/>
        <pt x="265" y="-10" on="1"/>
        <pt x="195" y="-10" on="0"/>
        <pt x="106" y="68" on="0"/>
        <pt x="106" y="151" on="1"/>
        <pt x="106" y="415" on="1"/>
        <pt x="106" y="437" on="0"/>
        <pt x="70" y="454" on="0"/>
        <pt x="32" y="460" on="1"/>
        <pt x="20" y="462" on="1"/>
        <pt x="20" y="508" on="1"/>
        <pt x="195" y="508" on="1"/>
      </contour>
    </TTGlyph>
    <TTGlyph name="uni0076" xMin="5" yMin="0" xMax="574" yMax="508">
      <contour>
        <pt x="246" y="0" on="1"/>
        <pt x="338" y="0" on="1"/>
        <pt x="499" y="421" on="1"/>
        <pt x="509" y="447" on="0"/>
        <pt x="550" y="463" on="0"/>
        <pt x="572" y="463" on="1"/>
        <pt x="574" y="463" on="1"/>
        <pt x="574" y="508" on="1"/>
        <pt x="360" y="508" on="1"/>
        <pt x="360" y="463" on="1"/>
        <pt x="362" y="463" on="1"/>
        <pt x="392" y="463" on="0"/>
        <pt x="444" y="451" on="0"/>
        <pt x="445" y="442" on="1"/>
        <pt x="300" y="55" on="1"/>
        <pt x="310" y="57" on="1"/>
        <pt x="310" y="57" on="1"/>
        <pt x="160" y="454" on="1"/>
        <pt x="160" y="458" on="0"/>
        <pt x="186" y="461" on="0"/>
        <pt x="227" y="463" on="0"/>
        <pt x="248" y="463" on="1"/>
        <pt x="250" y="463" on="1"/>
        <pt x="250" y="508" on="1"/>
        <pt x="5" y="508" on="1"/>
        <pt x="5" y="463" on="1"/>
        <pt x="7" y="463" on="1"/>
        <pt x="36" y="463" on="0"/>
        <pt x="72" y="449" on="0"/>
        <pt x="80" y="429" on="1"/>
      </contour>
    </TTGlyph>
    <TTGlyph name="uni0077" xMin="5" yMin="0" xMax="822" yMax="508">
      <contour>
        <pt x="419" y="409" on="1"/>
        <pt x="403" y="408" on="1"/>
        <pt x="532" y="0" on="1"/>
        <pt x="622" y="0" on="1"/>
        <pt x="748" y="420" on="1"/>
        <pt x="755" y="443" on="0"/>
        <pt x="798" y="463" on="0"/>
        <pt x="821" y="463" on="1"/>
        <pt x="822" y="463" on="1"/>
        <pt x="822" y="508" on="1"/>
        <pt x="605" y="508" on="1"/>
        <pt x="605" y="463" on="1"/>
        <pt x="607" y="463" on="1"/>
        <pt x="631" y="463" on="0"/>
        <pt x="668" y="458" on="0"/>
        <pt x="691" y="449" on="0"/>
        <pt x="692" y="442" on="1"/>
        <pt x="582" y="62" on="1"/>
        <pt x="591" y="62" on="1"/>
        <pt x="459" y="508" on="1"/>
        <pt x="388" y="508" on="1"/>
        <pt x="259" y="61" on="1"/>
        <pt x="271" y="61" on="1"/>
        <pt x="156" y="454" on="1"/>
        <pt x="156" y="458" on="0"/>
        <pt x="181" y="461" on="0"/>
        <pt x="222" y="463" on="0"/>
        <pt x="245" y="463" on="1"/>
        <pt x="247" y="463" on="1"/>
        <pt x="247" y="508" on="1"/>
        <pt x="5" y="508" on="1"/>
        <pt x="5" y="463" on="1"/>
        <pt x="6" y="463" on="1"/>
        <pt x="29" y="463" on="0"/>
        <pt x="67" y="451" on="0"/>
        <pt x="73" y="432" on="1"/>
        <pt x="207" y="0" on="1"/>
        <pt x="297" y="0" on="1"/>
      </contour>
    </TTGlyph>
    <TTGlyph name="uni0078" xMin="6" yMin="0" xMax="569" yMax="508">
      <contour>
        <pt x="318" y="0" on="1"/>
        <pt x="318" y="45" on="1"/>
        <pt x="320" y="45" on="1"/>
        <pt x="341" y="45" on="0"/>
        <pt x="383" y="47" on="0"/>
        <pt x="410" y="51" on="0"/>
        <pt x="410" y="54" on="1"/>
        <pt x="261" y="231" on="1"/>
        <pt x="257" y="234" on="1"/>
        <pt x="91" y="436" on="1"/>
        <pt x="78" y="452" on="0"/>
        <pt x="48" y="462" on="0"/>
        <pt x="19" y="462" on="1"/>
        <pt x="18" y="462" on="1"/>
        <pt x="18" y="508" on="1"/>
        <pt x="266" y="508" on="1"/>
        <pt x="266" y="463" on="1"/>
        <pt x="264" y="463" on="1"/>
        <pt x="233" y="463" on="0"/>
        <pt x="177" y="460" on="0"/>
        <pt x="177" y="455" on="1"/>
        <pt x="321" y="280" on="1"/>
        <pt x="325" y="276" on="1"/>
        <pt x="490" y="79" on="1"/>
        <pt x="506" y="60" on="0"/>
        <pt x="538" y="45" on="0"/>
        <pt x="568" y="45" on="1"/>
        <pt x="569" y="45" on="1"/>
        <pt x="569" y="0" on="1"/>
      </contour>
      <contour>
        <pt x="324" y="246" on="1"/>
        <pt x="283" y="283" on="1"/>
        <pt x="419" y="443" on="1"/>
        <pt x="419" y="452" on="0"/>
        <pt x="366" y="463" on="0"/>
        <pt x="338" y="463" on="1"/>
        <pt x="335" y="463" on="1"/>
        <pt x="335" y="508" on="1"/>
        <pt x="558" y="508" on="1"/>
        <pt x="558" y="463" on="1"/>
        <pt x="557" y="463" on="1"/>
        <pt x="532" y="463" on="0"/>
        <pt x="493" y="444" on="0"/>
        <pt x="471" y="418" on="1"/>
      </contour>
      <contour>
        <pt x="6" y="0" on="1"/>
        <pt x="6" y="45" on="1"/>
        <pt x="7" y="45" on="1"/>
        <pt x="29" y="45" on="0"/>
        <pt x="70" y="63" on="0"/>
        <pt x="87" y="83" on="1"/>
        <pt x="245" y="267" on="1"/>
        <pt x="289" y="233" on="1"/>
        <pt x="146" y="65" on="1"/>
        <pt x="146" y="59" on="0"/>
        <pt x="171" y="50" on="0"/>
        <pt x="209" y="45" on="0"/>
        <pt x="228" y="45" on="1"/>
        <pt x="230" y="45" on="1"/>
        <pt x="230" y="0" on="1"/>
      </contour>
    </TTGlyph>
    <TTGlyph name="uni0079" xMin="5" yMin="-232" xMax="586" yMax="508">
      <contour>
        <pt x="269" y="-14" on="1"/>
        <pt x="82" y="428" on="1"/>
        <pt x="73" y="449" on="0"/>
        <pt x="36" y="463" on="0"/>
        <pt x="6" y="463" on="1"/>
        <pt x="5" y="463" on="1"/>
        <pt x="5" y="508" on="1"/>
        <pt x="255" y="508" on="1"/>
        <pt x="255" y="463" on="1"/>
        <pt x="253" y="463" on="1"/>
        <pt x="233" y="463" on="0"/>
        <pt x="192" y="461" on="0"/>
        <pt x="165" y="458" on="0"/>
        <pt x="165" y="454" on="1"/>
        <pt x="332" y="45" on="1"/>
        <pt x="320" y="8" on="1"/>
      </contour>
      <contour>
        <pt x="102" y="-232" on="1"/>
        <pt x="77" y="-232" on="0"/>
        <pt x="44" y="-221" on="0"/>
        <pt x="33" y="-214" on="1"/>
        <pt x="33" y="-134" on="1"/>
        <pt x="36" y="-135" on="0"/>
        <pt x="55" y="-144" on="0"/>
        <pt x="84" y="-152" on="0"/>
        <pt x="101" y="-152" on="1"/>
        <pt x="124" y="-152" on="0"/>
        <pt x="170" y="-137" on="0"/>
        <pt x="218" y="-94" on="0"/>
        <pt x="268" y="-12" on="0"/>
        <pt x="294" y="54" on="1"/>
        <pt x="301" y="72" on="1"/>
        <pt x="453" y="441" on="1"/>
        <pt x="453" y="451" on="0"/>
        <pt x="401" y="463" on="0"/>
        <pt x="371" y="463" on="1"/>
        <pt x="368" y="463" on="1"/>
        <pt x="368" y="508" on="1"/>
        <pt x="586" y="508" on="1"/>
        <pt x="586" y="463" on="1"/>
        <pt x="585" y="463" on="1"/>
        <pt x="563" y="463" on="0"/>
        <pt x="522" y="446" on="0"/>
        <pt x="510" y="418" on="1"/>
        <pt x="342" y="17" on="1"/>
        <pt x="306" y="-69" on="0"/>
        <pt x="234" y="-179" on="0"/>
        <pt x="152" y="-232" on="0"/>
      </contour>
    </TTGlyph>
    <TTGlyph name="uni007A" xMin="33" yMin="0" xMax="447" yMax="508">
      <contour>
        <pt x="102" y="55" on="1"/>
        <pt x="258" y="55" on="1"/>
        <pt x="301" y="55" on="0"/>
        <pt x="354" y="62" on="0"/>
        <pt x="381" y="81" on="0"/>
        <pt x="383" y="100" on="1"/>
        <pt x="393" y="180" on="1"/>
        <pt x="447" y="180" on="1"/>
        <pt x="447" y="0" on="1"/>
        <pt x="33" y="0" on="1"/>
        <pt x="33" y="60" on="1"/>
        <pt x="353" y="467" on="1"/>
        <pt x="368" y="454" on="1"/>
        <pt x="237" y="454" on="1"/>
        <pt x="194" y="454" on="0"/>
        <pt x="140" y="448" on="0"/>
        <pt x="115" y="429" on="0"/>
        <pt x="112" y="411" on="1"/>
        <pt x="103" y="346" on="1"/>
        <pt x="50" y="346" on="1"/>
        <pt x="50" y="508" on="1"/>
        <pt x="436" y="508" on="1"/>
        <pt x="436" y="453" on="1"/>
        <pt x="114" y="39" on="1"/>
      </contour>
    </TTGlyph>
    <TTGlyph name="uni007B" xMin="50" yMin="-149" xMax="322" yMax="752">
      <contour>
        <pt x="248" y="227" on="1"/>
        <pt x="248" y="213" on="0"/>
        <pt x="231" y="174" on="0"/>
        <pt x="205" y="128" on="0"/>
        <pt x="179" y="77" on="0"/>
        <pt x="162" y="27" on="0"/>
        <pt x="162" y="4" on="1"/>
        <pt x="162" y="-52" on="0"/>
        <pt x="243" y="-99" on="0"/>
        <pt x="322" y="-98" on="1"/>
        <pt x="308" y="-146" on="1"/>
        <pt x="262" y="-149" on="0"/>
        <pt x="176" y="-137" on="0"/>
        <pt x="110" y="-105" on="0"/>
        <pt x="71" y="-49" on="0"/>
        <pt x="71" y="-6" on="1"/>
        <pt x="71" y="26" on="0"/>
        <pt x="99" y="96" on="0"/>
        <pt x="139" y="165" on="0"/>
        <pt x="179" y="228" on="0"/>
        <pt x="191" y="252" on="1"/>
        <pt x="204" y="233" on="1"/>
        <pt x="50" y="281" on="1"/>
        <pt x="50" y="322" on="1"/>
        <pt x="204" y="370" on="1"/>
        <pt x="191" y="351" on="1"/>
        <pt x="179" y="375" on="0"/>
        <pt x="139" y="438" on="0"/>
        <pt x="99" y="507" on="0"/>
        <pt x="71" y="578" on="0"/>
        <pt x="71" y="609" on="1"/>
        <pt x="71" y="652" on="0"/>
        <pt x="110" y="708" on="0"/>
        <pt x="176" y="740" on="0"/>
        <pt x="262" y="752" on="0"/>
        <pt x="308" y="749" on="1"/>
        <pt x="322" y="701" on="1"/>
        <pt x="243" y="703" on="0"/>
        <pt x="162" y="655" on="0"/>
        <pt x="162" y="599" on="1"/>
        <pt x="162" y="576" on="0"/>
        <pt x="179" y="526" on="0"/>
        <pt x="205" y="475" on="0"/>
        <pt x="231" y="429" on="0"/>
        <pt x="248" y="390" on="0"/>
        <pt x="248" y="376" on="1"/>
        <pt x="248" y="357" on="0"/>
        <pt x="227" y="331" on="0"/>
        <pt x="168" y="312" on="0"/>
        <pt x="111" y="304" on="1"/>
        <pt x="111" y="299" on="1"/>
        <pt x="168" y="291" on="0"/>
        <pt x="227" y="272" on="0"/>
        <pt x="248" y="246" on="0"/>
      </contour>
    </TTGlyph>
    <TTGlyph name="uni007D" xMin="20" yMin="-149" xMax="292" yMax="752">
      <component glyphName="uni007B" x="342" y="0" scalex="-1.0" scaley="1.0" flags="0x4"/>
    </TTGlyph>
    <TTGlyph name="uni2013" xMin="78" yMin="285" xMax="527" yMax="345">
      <contour>
        <pt x="78" y="345" on="1"/>
        <pt x="527" y="345" on="1"/>
        <pt x="527" y="285" on="1"/>
        <pt x="78" y="285" on="1"/>
      </contour>
    </TTGlyph>
    <TTGlyph name="uni2014" xMin="78" yMin="285" xMax="867" yMax="345">
      <contour>
        <pt x="78" y="345" on="1"/>
        <pt x="867" y="345" on="1"/>
        <pt x="867" y="285" on="1"/>
        <pt x="78" y="285" on="1"/>
      </contour>
    </TTGlyph>
    <TTGlyph name="uni2018" xMin="50" yMin="428" xMax="211" yMax="718">
      <component glyphName="uni2019" x="234" y="1143" scale="-1.0" flags="0x4"/>
    </TTGlyph>
    <TTGlyph name="uni2019" xMin="23" yMin="425" xMax="184" yMax="715">
      <contour>
        <pt x="92" y="425" on="1"/>
        <pt x="23" y="457" on="1"/>
        <pt x="49" y="479" on="0"/>
        <pt x="98" y="532" on="0"/>
        <pt x="130" y="588" on="0"/>
        <pt x="131" y="614" on="1"/>
        <pt x="134" y="617" on="0"/>
        <pt x="135" y="612" on="0"/>
        <pt x="139" y="603" on="0"/>
        <pt x="145" y="598" on="1"/>
        <pt x="138" y="597" on="0"/>
        <pt x="126" y="596" on="0"/>
        <pt x="121" y="596" on="1"/>
        <pt x="90" y="596" on="0"/>
        <pt x="51" y="627" on="0"/>
        <pt x="51" y="655" on="1"/>
        <pt x="51" y="681" on="0"/>
        <pt x="88" y="715" on="0"/>
        <pt x="115" y="715" on="1"/>
        <pt x="146" y="715" on="0"/>
        <pt x="184" y="678" on="0"/>
        <pt x="184" y="638" on="1"/>
        <pt x="184" y="577" on="0"/>
        <pt x="130" y="463" on="0"/>
      </contour>
    </TTGlyph>
    <TTGlyph name="uni201C" xMin="50" yMin="428" xMax="401" yMax="718">
      <component glyphName="uni201D" x="424" y="1143" scale="-1.0" flags="0x4"/>
    </TTGlyph>
    <TTGlyph name="uni201D" xMin="23" yMin="425" xMax="374" yMax="715">
      <contour>
        <pt x="92" y="425" on="1"/>
        <pt x="23" y="457" on="1"/>
        <pt x="49" y="479" on="0"/>
        <pt x="98" y="532" on="0"/>
        <pt x="130" y="588" on="0"/>
        <pt x="131" y="614" on="1"/>
        <pt x="134" y="617" on="0"/>
        <pt x="135" y="612" on="0"/>
        <pt x="139" y="603" on="0"/>
        <pt x="145" y="598" on="1"/>
        <pt x="138" y="597" on="0"/>
        <pt x="126" y="596" on="0"/>
        <pt x="121" y="596" on="1"/>
        <pt x="90" y="596" on="0"/>
        <pt x="51" y="627" on="0"/>
        <pt x="51" y="655" on="1"/>
        <pt x="51" y="681" on="0"/>
        <pt x="88" y="715" on="0"/>
        <pt x="115" y="715" on="1"/>
        <pt x="146" y="715" on="0"/>
        <pt x="184" y="678" on="0"/>
        <pt x="184" y="638" on="1"/>
        <pt x="184" y="577" on="0"/>
        <pt x="130" y="463" on="0"/>
      </contour>
      <contour>
        <pt x="282" y="425" on="1"/>
        <pt x="213" y="457" on="1"/>
        <pt x="239" y="479" on="0"/>
        <pt x="288" y="532" on="0"/>
        <pt x="320" y="588" on="0"/>
        <pt x="321" y="614" on="1"/>
        <pt x="324" y="617" on="0"/>
        <pt x="325" y="612" on="0"/>
        <pt x="329" y="603" on="0"/>
        <pt x="335" y="598" on="1"/>
        <pt x="328" y="597" on="0"/>
        <pt x="316" y="596" on="0"/>
        <pt x="311" y="596" on="1"/>
        <pt x="280" y="596" on="0"/>
        <pt x="241" y="627" on="0"/>
        <pt x="241" y="655" on="1"/>
        <pt x="241" y="681" on="0"/>
        <pt x="278" y="715" on="0"/>
        <pt x="305" y="715" on="1"/>
        <pt x="336" y="715" on="0"/>
        <pt x="374" y="678" on="0"/>
        <pt x="374" y="638" on="1"/>
        <pt x="374" y="577" on="0"/>
        <pt x="320" y="463" on="0"/>
      </contour>
    </TTGlyph>
    <TTGlyph name="uni2044" xMin="-122" yMin="0" xMax="566" yMax="710">
      <contour>
        <pt x="491" y="710" on="1"/>
        <pt x="566" y="710" on="1"/>
        <pt x="-47" y="0" on="1"/>
        <pt x="-122" y="0" on="1"/>
      </contour>
    </TTGlyph>
    <TTGlyph name="uni2212" xMin="73" yMin="308" xMax="487" yMax="374">
      <contour>
        <pt x="487" y="374" on="1"/>
        <pt x="487" y="308" on="1"/>
        <pt x="73" y="308" on="1"/>
        <pt x="73" y="374" on="1"/>
      </contour>
    </TTGlyph>
    <TTGlyph name="uniFB02" xMin="38" yMin="0" xMax="652" yMax="752">
      <contour>
        <pt x="38" y="508" on="1"/>
        <pt x="371" y="508" on="1"/>
        <pt x="371" y="451" on="1"/>
        <pt x="38" y="451" on="1"/>
      </contour>
      <contour>
        <pt x="479" y="55" on="1"/>
        <pt x="479" y="696" on="1"/>
        <pt x="419" y="735" on="1"/>
        <pt x="568" y="735" on="1"/>
        <pt x="568" y="81" on="1"/>
        <pt x="568" y="59" on="0"/>
        <pt x="614" y="45" on="0"/>
        <pt x="650" y="45" on="1"/>
        <pt x="652" y="45" on="1"/>
        <pt x="652" y="0" on="1"/>
        <pt x="395" y="0" on="1"/>
        <pt x="395" y="45" on="1"/>
        <pt x="406" y="45" on="1"/>
        <pt x="420" y="45" on="0"/>
        <pt x="454" y="47" on="0"/>
        <pt x="479" y="52" on="0"/>
      </contour>
      <contour>
        <pt x="329" y="0" on="1"/>
        <pt x="43" y="0" on="1"/>
        <pt x="43" y="45" on="1"/>
        <pt x="54" y="45" on="1"/>
        <pt x="95" y="45" on="0"/>
        <pt x="142" y="59" on="0"/>
        <pt x="142" y="81" on="1"/>
        <pt x="142" y="571" on="1"/>
        <pt x="142" y="641" on="0"/>
        <pt x="202" y="719" on="0"/>
        <pt x="298" y="752" on="0"/>
        <pt x="351" y="752" on="1"/>
        <pt x="384" y="752" on="0"/>
        <pt x="442" y="739" on="0"/>
        <pt x="491" y="715" on="0"/>
        <pt x="509" y="699" on="1"/>
        <pt x="506" y="623" on="1"/>
        <pt x="485" y="651" on="0"/>
        <pt x="437" y="683" on="0"/>
        <pt x="382" y="696" on="0"/>
        <pt x="349" y="696" on="1"/>
        <pt x="314" y="696" on="0"/>
        <pt x="261" y="676" on="0"/>
        <pt x="231" y="622" on="0"/>
        <pt x="231" y="571" on="1"/>
        <pt x="231" y="55" on="1"/>
        <pt x="231" y="50" on="0"/>
        <pt x="280" y="45" on="0"/>
        <pt x="316" y="45" on="1"/>
        <pt x="329" y="45" on="1"/>
      </contour>
    </TTGlyph>
</ttFont>
